/* XPM */
static char *_a80f37f4d7d4d8c8ab1acd73be3bfa5LVRgXWg3O99cK9UL[] = {
/* columns rows colors chars-per-pixel */
"64 64 177 2 ",
"   c None",
".  c #D21063",
"X  c #D31063",
"o  c #D31064",
"O  c #D31164",
"+  c #D31264",
"@  c #D41264",
"#  c #D41265",
"$  c #D41365",
"%  c #D51365",
"&  c #D51366",
"*  c #D51466",
"=  c #D51566",
"-  c #D71667",
";  c #D71668",
":  c #D71768",
">  c #D71868",
",  c #D81869",
"<  c #D91969",
"1  c #D9196A",
"2  c #D91A6A",
"3  c #DA1A6A",
"4  c #DA1B6B",
"5  c #DA1C6B",
"6  c #DB1C6B",
"7  c #DB1C6C",
"8  c #DB1D6C",
"9  c #DC1E6D",
"0  c #DC1F6D",
"q  c #DD206E",
"w  c #DE216F",
"e  c #DE226F",
"r  c #DF226F",
"t  c #DF2270",
"y  c #DF2370",
"u  c #E02471",
"i  c #E12572",
"p  c #E12672",
"a  c #E22672",
"s  c #E22773",
"d  c #E32873",
"f  c #E32874",
"g  c #E32974",
"h  c #E42974",
"j  c #E42A74",
"k  c #E42A75",
"l  c #E52B75",
"z  c #E52B76",
"x  c #E62C76",
"c  c #E62D77",
"v  c #E72D77",
"b  c #E72E77",
"n  c #E72E78",
"m  c #E82F78",
"M  c #E93179",
"N  c #E9317A",
"B  c #EA317A",
"V  c #EA327A",
"C  c #EA337B",
"Z  c #EB347C",
"A  c #EB357C",
"S  c #EC357C",
"D  c #EC357D",
"F  c #EC367D",
"G  c #ED377E",
"H  c #ED387E",
"J  c #EE387E",
"K  c #EE397F",
"L  c #EF3A80",
"P  c #EF3B80",
"I  c #EF3C81",
"U  c #F03C81",
"Y  c #F03D81",
"T  c #F13D81",
"R  c #F13D82",
"E  c #F03E82",
"W  c #F13E82",
"Q  c #F03F82",
"!  c #F13F82",
"~  c #F13F83",
"^  c #F14083",
"/  c #F14183",
"(  c #F14184",
")  c #F14385",
"_  c #F24284",
"`  c #F24485",
"'  c #F24586",
"]  c #F24686",
"[  c #F24787",
"{  c #F24887",
"}  c #F24988",
"|  c #F34B89",
" . c #F34D8A",
".. c #F34E8A",
"X. c #F34E8B",
"o. c #F34F8B",
"O. c #F3508B",
"+. c #F3508C",
"@. c #F3518C",
"#. c #F4528D",
"$. c #F4538D",
"%. c #F3558E",
"&. c #F4548E",
"*. c #F4568E",
"=. c #F45890",
"-. c #F45990",
";. c #F45A90",
":. c #F45A91",
">. c #F45E93",
",. c #F55E93",
"<. c #F55F93",
"1. c #F56094",
"2. c #F56194",
"3. c #F56395",
"4. c #F56596",
"5. c #F56597",
"6. c #F56697",
"7. c #F56797",
"8. c #F56898",
"9. c #F56A99",
"0. c #F66B9A",
"q. c #F66C9A",
"w. c #F66D9A",
"e. c #F66E9B",
"r. c #F66F9B",
"t. c #F6729D",
"y. c #F6739D",
"u. c #F6749E",
"i. c #F7759F",
"p. c #F7769F",
"a. c #F7779F",
"s. c #F777A0",
"d. c #F779A0",
"f. c #F77AA1",
"g. c #F77AA2",
"h. c #F77BA2",
"j. c #F77CA2",
"k. c #F77DA3",
"l. c #F77EA3",
"z. c #F77DA4",
"x. c #F77FA4",
"c. c #F780A4",
"v. c #F882A5",
"b. c #F883A6",
"n. c #F884A7",
"m. c #F885A7",
"M. c #F886A7",
"N. c #F888A8",
"B. c #F888A9",
"V. c #F88AA9",
"C. c #F88AAA",
"Z. c #F88BAA",
"A. c #F88CAA",
"S. c #F88CAB",
"D. c #F98DAB",
"F. c #F98EAB",
"G. c #F98EAC",
"H. c #F98FAC",
"J. c #F990AC",
"K. c #F990AD",
"L. c #F991AD",
"P. c #F992AD",
"I. c #F992AE",
"U. c #F993AE",
"Y. c #F994AE",
"T. c #F994AF",
"R. c #F995AF",
"E. c #FA9EB6",
"W. c #FAA8BE",
"Q. c #FAAABF",
"!. c #FBB4C7",
"~. c #FCC1D0",
"^. c #FCCAD7",
"/. c #FDD2DD",
"(. c #FDDAE3",
"). c #FEF1F4",
"_. c white",
/* pixels */
"                                                                                                                                ",
"                                                                                                                                ",
"                                                                                                                                ",
"                                                                                                                                ",
"                                                                                                                                ",
"                                                                                                                                ",
"                                                                                                                                ",
"                                                                                                                                ",
"                                                                                                                                ",
"                                                                                                                                ",
"                                                                                                                                ",
"                                                                                                                                ",
"                                                                                                                                ",
"                    O O O O O O O O O O O O O O O O O O O O O O O O O O O O O O O O O O O O O O $ . . $ o .                     ",
"        ; O . O O O O O O O O O O O O O O O O O O O O O O O O O O O O O O O O O O O O O O O O O . $ $ . o $ . $ O . O 4         ",
"        F z t 4 - $ O o . o O O O O O O O O O O O O O O O O O O O O O O O O O O O O O O O O O O o o o . o $ $ ; 7 u n F         ",
"        _ X.] T K V x u r 9 4 - - O O O O $ O . . . . O O O . o . . O . X O O . O O O . $ . O - ; 4 9 t d x Z K T ] O._         ",
"      T X.B.m.d.8.<.&.X.] ^ K K A V n z f u u q q q 6 6 4 4 4 4 4 4 4 6 6 0 0 q r u u j x m V S F T ^ ] X.%.2.w.d.M.N.X.T       ",
"      T +.G.T.T.T.U.J.Z.v.l.i.w.4.<.=.$...| { ] ) ^ ^ T I I T I L L T ^ T ^ ^ ) ] { | X.&.;.2.4.t.a.z.n.F.F.U.T.T.T.F.O.T       ",
"      T %.U.U.U.U.U.U.T.T.T.T.T.T.U.U.F.F.Z.Z.n.v.v.j.j.d.z.d.s.d.d.z.d.j.j.c.v.n.N.Z.F.J.U.U.T.T.T.T.T.U.U.U.U.U.U.U.%.T       ",
"      T -.U.U.U.U.U.U.U.U.U.U.U.U.U.U.U.U.U.U.T.T.T.T.T.U.~./.E.E./.~.U.T.T.T.T.T.T.T.J.U.U.U.U.U.U.U.U.U.U.U.U.U.U.U.;.T       ",
"      T >.U.U.U.U.U.U.U.U.U.U.U.U.U.U.U.U.U.U.U.P.T.T.P.J.^._.(.(._.^.U.T.P.P.T.U.U.T.T.U.U.U.U.U.U.U.U.U.U.U.U.U.U.U.>.T       ",
"      T 3.T.U.U.U.U.U.U.U.U.U.U.U.U.U.U.U.U.U.U.T.P.J.T.T.^.).!.!.).^.U.P.T.P.T.P.T.P.T.U.U.U.U.U.U.U.U.U.U.U.U.U.U.T.3.T       ",
"      T 8.U.U.U.U.U.U.U.U.U.U.U.U.U.U.U.U.U.U.U.P.T.T.T.P.W.W.J.U.W.W.U.T.P.T.P.T.P.T.P.U.U.U.U.U.U.U.U.U.U.U.U.U.U.T.8.T       ",
"      T w.T.U.U.U.U.U.U.U.U.U.U.U.U.U.U.U.U.U.U.U.U.U.U.U.J.U.U.U.U.J.U.U.U.U.U.U.U.U.U.U.U.U.U.U.U.U.U.U.U.U.U.U.U.T.w.T       ",
"      T y.T.U.U.U.U.U.U.U.U.U.U.U.U.U.U.U.U.U.U.U.U.U.U.U.U.T.U.U.U.U.U.U.U.U.U.U.U.U.U.U.U.U.U.U.U.U.U.U.U.U.U.U.U.U.y.T       ",
"      _ s.T.U.U.U.U.U.U.U.U.U.U.U.U.U.U.U.U.U.U.U.U.U.U.U.U.U.U.U.U.U.U.U.U.U.U.U.U.U.U.U.U.U.U.U.U.U.U.U.U.U.U.U.U.T.s.~       ",
"      ~ p.G.F.U.T.T.T.U.U.U.U.U.U.U.U.U.U.U.U.U.U.U.U.U.U.U.U.U.U.U.U.U.U.U.U.U.U.U.U.U.U.U.U.U.U.U.U.U.U.T.T.T.U.G.G.s._       ",
"      T | X.+.;.4.p.n.F.T.T.U.U.U.U.U.U.U.U.U.U.U.U.U.U.U.U.U.U.U.U.U.U.U.U.U.U.U.U.U.U.U.U.U.U.U.U.U.T.G.n.p.4.;.+.X.| T       ",
"      A z f z m Z K _ $.w.n.U.T.U.U.U.U.U.U.U.U.U.U.U.U.U.U.U.U.U.U.U.U.U.U.U.U.U.U.U.U.U.U.U.U.T.U.n.w.&._ K A m z s z A       ",
"            O $ - 4 q m K ] 2.v.U.T.U.U.U.U.U.U.U.U.U.U.U.U.U.U.U.U.U.U.U.U.U.U.U.U.U.U.U.U.T.U.v.2.] K z t 4 - $ O             ",
"                . . X O 4 u A ] 4.Z.T.U.U.U.U.U.U.U.U.U.U.U.U.U.U.U.U.U.U.U.U.U.U.U.U.U.U.T.Z.4.] A u 4 O o . O                 ",
"                  O O O . $ 4 u K X.j.T.U.U.U.U.U.U.U.U.U.U.U.U.U.U.U.U.U.U.U.U.U.U.U.U.U.d.X.L u ; O O O O O                   ",
"                      O $ . . O 4 V ] w.U.U.U.U.U.U.U.U.U.U.U.U.U.U.U.U.U.U.U.U.U.U.U.U.e.] V 4 O O O O O                       ",
"                          O O O . - z ^ 4.G.Y.U.U.U.U.U.U.U.U.U.U.U.U.U.U.U.U.U.U.U.U.8.T z - o O O O                           ",
"                            O O . . $ u I 4.G.U.U.U.U.U.U.U.U.U.U.U.U.U.U.U.U.U.T.G.3.I u $ O O O O                             ",
"                                . O O O u ^ 8.U.U.T.T.P.U.U.U.U.U.U.U.U.U.U.U.U.U.8.I y O O O O                                 ",
"                                  O O O O d _ p.T.J.P.T.U.U.U.U.U.U.U.U.U.U.U.U.y._ f - O O O                                   ",
"                                    O O + - m { v.T.T.P.U.U.U.U.U.U.U.U.U.U.T.v.| x $ O O O                                     ",
"                                      O . . > F ;.J.P.T.U.U.U.U.U.U.U.U.U.U.U.;.F - $ O O                                       ",
"                                        O O O q ^ p.U.T.T.U.U.U.U.U.U.U.U.T.p.^ q . O O                                         ",
"                                          O . - m X.N.T.U.U.U.U.U.U.U.U.T.F.X.x - . O                                           ",
"                                            O o 4 U w.U.U.U.U.U.U.U.U.U.T.w.L 8 O O                                             ",
"                                              O $ x X.Z.T.U.U.U.U.U.U.U.Z.X.x O O                                               ",
"                                                . 6 L y.U.U.U.U.U.U.U.T.w.I 6 .                                                 ",
"                                                  $ x +.A.U.U.U.U.U.T.N.+.x $                                                   ",
"                                                    8 I p.U.U.U.U.U.U.p.T 9                                                     ",
"                                                      V %.G.U.U.U.U.F.&.V                                                       ",
"                                                      x ^ p.T.T.T.T.s.^ z                                                       ",
"                                                        L +.p.y.y.y.O.L                                                         ",
"                                                          ^ T T T T T                                                           ",
"                                                                                                                                ",
"                                                                                                                                ",
"                                                                                                                                ",
"                                                                                                                                ",
"                                                                                                                                ",
"                                                                                                                                ",
"                                                                                                                                ",
"                                                                                                                                ",
"                                                                                                                                ",
"                                                                                                                                ",
"                                                                                                                                ",
"                                                                                                                                ",
"                                                                                                                                "
};
