/* XPM */
static char * calcinha_xpm[] = {
"64 64 208 2",
"  	c #DDB48C",
". 	c #E2B38B",
"+ 	c #E1B594",
"@ 	c #DCB592",
"# 	c #E3BB94",
"$ 	c #E3BD9B",
"% 	c #DDBC9C",
"& 	c #D6BA9C",
"* 	c #DDBEA2",
"= 	c #E3BFA0",
"- 	c #DCC3A5",
"; 	c #E4C3A2",
"> 	c #D5B79B",
", 	c #F1C59C",
"' 	c #ECC89C",
") 	c #F1C6A2",
"! 	c #F4CAA9",
"~ 	c #F2D0AB",
"{ 	c #F0CCA8",
"] 	c #F2CBA5",
"^ 	c #F7CFAC",
"/ 	c #F3CDB1",
"( 	c #F2CFB1",
"_ 	c #F1CFB3",
": 	c #F4D5B6",
"< 	c #F2D5B3",
"[ 	c #F2D7B9",
"} 	c #F1D8B9",
"| 	c #F5D6B9",
"1 	c #F3D3B3",
"2 	c #F8D6B3",
"3 	c #F4D9BA",
"4 	c #F9DABE",
"5 	c #F6D7BB",
"6 	c #FCDFC1",
"7 	c #F7D8BC",
"8 	c #F1D2B5",
"9 	c #ECC396",
"0 	c #ECC39C",
"a 	c #E9BE9B",
"b 	c #F3C99F",
"c 	c #EBC6A2",
"d 	c #F1CEA8",
"e 	c #EDCAA5",
"f 	c #F2CFA9",
"g 	c #EDC7AB",
"h 	c #EDCEB1",
"i 	c #EECFB3",
"j 	c #ECD3B5",
"k 	c #ECD2B7",
"l 	c #EED5B6",
"m 	c #EFD0B1",
"n 	c #EDCCAA",
"o 	c #F3D0B0",
"p 	c #ECD1B4",
"q 	c #F5CCAC",
"r 	c #EED6BC",
"s 	c #ECD4B8",
"t 	c #E4CBAC",
"u 	c #ECCEB1",
"v 	c #E7C9A7",
"w 	c #E4C29C",
"x 	c #ECD7B8",
"y 	c #EFD2B0",
"z 	c #EED1AF",
"A 	c #F0CEA9",
"B 	c #EDD0AE",
"C 	c #EED0AE",
"D 	c #F4D0AE",
"E 	c #F9D8B7",
"F 	c #F7D5B0",
"G 	c #F2D8B7",
"H 	c #F5D7B5",
"I 	c #F3DABB",
"J 	c #F5DCBD",
"K 	c #F4DBBC",
"L 	c #F6DDBE",
"M 	c #ECD8B5",
"N 	c #E4BE8C",
"O 	c #EABE95",
"P 	c #E6C293",
"Q 	c #DEC19D",
"R 	c #E5C6AA",
"S 	c #E9C9B0",
"T 	c #EBCBB2",
"U 	c #DFCAAB",
"V 	c #E4CFB0",
"W 	c #E2B985",
"X 	c #E0AF84",
"Y 	c #E2B186",
"Z 	c #DFB383",
"` 	c #DAAA7F",
" .	c #F1CEAE",
"..	c #F3D1AD",
"+.	c #F5D1AF",
"@.	c #D31164",
"#.	c #D41365",
"$.	c #D21063",
"%.	c #D31064",
"&.	c #F6CEAB",
"*.	c #D71668",
"=.	c #DA1B6B",
"-.	c #DFB88F",
";.	c #EC367D",
">.	c #E52B76",
",.	c #DF2270",
"'.	c #D71667",
").	c #DB1C6C",
"!.	c #E02471",
"~.	c #E72E78",
"{.	c #DDBB96",
"].	c #F24284",
"^.	c #F34E8B",
"/.	c #F24686",
"(.	c #F13D81",
"_.	c #EE397F",
":.	c #EA327A",
"<.	c #E62C76",
"[.	c #DF226F",
"}.	c #DC1E6D",
"|.	c #D31063",
"1.	c #E32873",
"2.	c #EB347C",
"3.	c #F3508B",
"4.	c #F888A9",
"5.	c #F885A7",
"6.	c #F779A0",
"7.	c #F56898",
"8.	c #F55F93",
"9.	c #F4548E",
"0.	c #F14083",
"a.	c #EB357C",
"b.	c #E32874",
"c.	c #DD206E",
"d.	c #DB1C6B",
"e.	c #DC1F6D",
"f.	c #E42A74",
"g.	c #E82F78",
"h.	c #EC357C",
"i.	c #F3558E",
"j.	c #F56194",
"k.	c #F66D9A",
"l.	c #F886A7",
"m.	c #F888A8",
"n.	c #F3508C",
"o.	c #F98EAC",
"p.	c #F994AF",
"q.	c #F993AE",
"r.	c #F990AC",
"s.	c #F88BAA",
"t.	c #F882A5",
"u.	c #F77EA3",
"v.	c #F7759F",
"w.	c #F56596",
"x.	c #F45890",
"y.	c #F4538D",
"z.	c #F34E8A",
"A.	c #F34B89",
"B.	c #F24887",
"C.	c #F14385",
"D.	c #EF3C81",
"E.	c #EF3A80",
"F.	c #F45A90",
"G.	c #F6729D",
"H.	c #F7779F",
"I.	c #F77DA4",
"J.	c #F884A7",
"K.	c #F98EAB",
"L.	c #F77CA2",
"M.	c #F777A0",
"N.	c #F780A4",
"O.	c #F45990",
"P.	c #FCC1D0",
"Q.	c #FDD2DD",
"R.	c #FA9EB6",
"S.	c #F45E93",
"T.	c #F992AD",
"U.	c #FCCAD7",
"V.	c #FFFFFF",
"W.	c #FDDAE3",
"X.	c #F56395",
"Y.	c #FEF1F4",
"Z.	c #FBB4C7",
"`.	c #FAA8BE",
" +	c #F6739D",
".+	c #F13F83",
"++	c #F7769F",
"@+	c #E22773",
"#+	c #DFC6A8",
"$+	c #F66E9B",
"%+	c #F9DABD",
"&+	c #F994AE",
"*+	c #F4D6B2",
"=+	c #DF2370",
"-+	c #E7CEB0",
";+	c #D31264",
">+	c #D71868",
",+	c #DEAD82",
"'+	c #F1C894",
")+	c #F03C81",
"!+	c #DB1D6C",
"~+	c #F88CAA",
"{+	c #F5CDAA",
"]+	c #FADBBC",
"^+	c #DBAE8D",
"/+	c #EACAB1",
"(+	c #EBC28E",
"_+	c #F2BF92",
"      . + + + + .     @ + + + + + @ + +   @ + # # # + $ $ + % % % % % % $ % % $ % & & & & * % & * * * = - ; * * * * * & * * * > ",
", , ' , ) ) ) ) ) ) ) ) ) ! ! ! ~ ! ! ~ { ] ! ^ ! ^ ^ ^ / ( ( _ : : < : [ [ } < | < 1 1 | 2 3 | 4 4 5 6 7 7 6 6 8 6 7 | | 4 7 1 ",
"9 0 0 0 a ) , a b , ' ) c ) ) ! c ] d c c ; c e f g g h i i j k j l j l j l l l m n n h h o j o o j i i p m m m h / ( f n o n n ",
", b , b ) ) ! ! ] ] ] ] ! ! q q ] d d e c 0 c ) h h h j k k [ r s s s s s s s s m g t t n h n h m n u n n n n t ; c c ; v e c w ",
", , , , ) ) ) ! ] c c ] c ] { ! d ~ d e e c e g n h m k p s x r s s s s s s s s _ h n n m 1 1 m y m o z z z z n e A B e e C e ' ",
"0 9 0 0 , c ) = ' ' ' ' c c c g e A A e v c c e n n z m k m j j l l l s s l l j j u h h m o j o < 1 j m m o m 1 z z B B m 1 y t ",
"b b ) ) ] ! ! ! d ] d d f ~ D o A A A A e e f f E 1 F 1 G H G } 3 3 3 3 3 7 3 3 < 1 j 1 < [ : : 5 5 5 5 7 7 7 7 I J K I K L K M ",
"N # O O O a O a w P w w w ; ; c Q w w w Q w w w ' ; ' ; ; ; ; ; ; ; e ; ; ; c ; R ; ; ; ; R g g R S S S S S S T U V U U V V U - ",
". . + . . . . . W X X X Y X X Y X X X X X X X X Z Y Y X Y Y Z ` . . . . . + . . . . . . . . . . . + . . X . Y + N . . . + . . . ",
") ) , ) ) ) ) ) , O O , , , 9 , , , , , , , , , , , , , , b ' 9 ) ) ) ! , ) ) , ! ) ) ! ) ) ! ) ) ) ) ) a , ) ) ) ) ) ) ) ) ) ! ",
") c c c c ) c c , 0 a 0 ) 0 , , , c ' , , ) , ) w , c 0 ' c ' # 0 ; 0 0 ' ; 0 ' c c ) a ' c c ' ) ) c 0 = a ' ; c ; c c c c , a ",
"g ! { { g ! f ~ f c c ] ! ] ] ! ! { { d ] ] { ] c e e c e f e w { e g ! e g g n ! { ! q n e g e  .!  .g c ! n D  .f ! f ! ! ^ q ",
"g n e n e n e e e ; c c e e c c e f e g e d d e e A e e e d e w { g A C e C n n g  .C ~ ~ f A C  .D D C e n ~ ......+.+.o D o +.",
"e e e e e d e n c ' @.@.@.@.@.@.@.@.@.@.@.@.@.@.@.@.@.@.@.@.@.@.@.@.@.@.@.@.@.@.@.@.@.@.@.@.@.@.#.$.$.#.%.$.c e v e e c e v e c ",
"&.~ ..^ *.@.$.@.@.@.@.@.@.@.@.@.@.@.@.@.@.@.@.@.@.@.@.@.@.@.@.@.@.@.@.@.@.@.@.@.@.@.@.@.@.@.@.@.$.#.#.$.%.#.$.#.@.$.@.=.' c ' c ",
"-.-.  N ;.>.,.=.'.#.@.%.$.%.@.@.@.@.@.@.@.@.@.@.@.@.@.@.@.@.@.@.@.@.@.@.@.@.@.@.@.@.@.@.@.@.@.@.%.%.%.$.%.#.#.*.).!.~.;.# N # {.",
"P $ P w ].^./.(._.:.<.!.[.}.=.'.'.@.@.@.@.#.@.$.$.$.$.@.@.@.$.%.$.$.@.$.|.@.@.$.@.@.@.$.#.$.@.'.*.=.}.,.1.<.2._.(./.3.].- ; ; w ",
"~ ~ ..(.^.4.5.6.7.8.9.^./.0._._.a.:.~.>.b.!.!.c.c.c.d.d.=.=.=.=.=.=.=.d.d.e.e.c.[.!.!.f.<.g.:.h.;.(.0./.^.i.j.k.6.l.m.^.(.F  .g ",
"e e ] (.n.o.p.p.p.q.r.s.t.u.v.k.w.8.x.y.z.A.B./.C.0.0.(.D.D.(.D.E.E.(.0.(.0.0.C./.B.A.^.9.F.j.w.G.H.I.J.K.K.q.p.p.p.K.3.(.f ; $ ",
"e e e (.i.q.q.q.q.q.q.p.p.p.p.p.p.q.q.K.K.s.s.J.t.t.L.L.6.I.6.M.6.6.I.6.L.L.N.t.J.m.s.K.r.q.q.p.p.p.p.p.q.q.q.q.q.q.q.i.(.o c w ",
"' e ' (.O.q.q.q.q.q.q.q.q.q.q.q.q.q.q.q.q.q.q.p.p.p.p.p.q.P.Q.R.R.Q.P.q.p.p.p.p.p.p.p.r.q.q.q.q.q.q.q.q.q.q.q.q.q.q.q.F.(.F ! ] ",
"c c e (.S.q.q.q.q.q.q.q.q.q.q.q.q.q.q.q.q.q.q.q.T.p.p.T.r.U.V.W.W.V.U.q.p.T.T.p.q.q.p.p.q.q.q.q.q.q.q.q.q.q.q.q.q.q.q.S.(.] c c ",
"C ....(.X.p.q.q.q.q.q.q.q.q.q.q.q.q.q.q.q.q.q.q.p.T.r.p.p.U.Y.Z.Z.Y.U.q.T.p.T.p.T.p.T.p.q.q.q.q.q.q.q.q.q.q.q.q.q.q.p.X.(.d ] ) ",
"P w 9 (.7.q.q.q.q.q.q.q.q.q.q.q.q.q.q.q.q.q.q.q.T.p.p.p.T.`.`.r.q.`.`.q.p.T.p.T.p.T.p.T.q.q.q.q.q.q.q.q.q.q.q.q.q.q.p.7.(.c a # ",
". Y . (.k.p.q.q.q.q.q.q.q.q.q.q.q.q.q.q.q.q.q.q.q.q.q.q.q.r.q.q.q.q.r.q.q.q.q.q.q.q.q.q.q.q.q.q.q.q.q.q.q.q.q.q.q.q.p.k.(.Y Y . ",
"' ' 0 (. +p.q.q.q.q.q.q.q.q.q.q.q.q.q.q.q.q.q.q.q.q.q.q.q.q.p.q.q.q.q.q.q.q.q.q.q.q.q.q.q.q.q.q.q.q.q.q.q.q.q.q.q.q.q. +(.) ) ! ",
"0 a w ].M.p.q.q.q.q.q.q.q.q.q.q.q.q.q.q.q.q.q.q.q.q.q.q.q.q.q.q.q.q.q.q.q.q.q.q.q.q.q.q.q.q.q.q.q.q.q.q.q.q.q.q.q.q.p.M..+0 0 ' ",
"g { { .+++o.K.q.p.p.p.q.q.q.q.q.q.q.q.q.q.q.q.q.q.q.q.q.q.q.q.q.q.q.q.q.q.q.q.q.q.q.q.q.q.q.q.q.q.q.q.q.q.p.p.p.q.o.o.M.].c c 0 ",
" . . .(.A.^.n.F.w.++J.K.p.p.q.q.q.q.q.q.q.q.q.q.q.q.q.q.q.q.q.q.q.q.q.q.q.q.q.q.q.q.q.q.q.q.q.q.q.q.q.p.o.J.++w.F.n.^.A.(.f f f ",
"n n f a.>.b.>.g.2._.].y.k.J.q.p.q.q.q.q.q.q.q.q.q.q.q.q.q.q.q.q.q.q.q.q.q.q.q.q.q.q.q.q.q.q.q.q.p.q.J.k.9.]._.a.g.>.@+>.a.f C D ",
"! f f { ~ f @.#.'.=.c.g._./.j.t.q.p.q.q.q.q.q.q.q.q.q.q.q.q.q.q.q.q.q.q.q.q.q.q.q.q.q.q.q.q.p.q.t.j./._.>.,.=.'.#.@./ ! ^ ( f { ",
"O $ # $ O # $ # $.$.|.@.=.!.a./.w.s.p.q.q.q.q.q.q.q.q.q.q.q.q.q.q.q.q.q.q.q.q.q.q.q.q.q.q.p.s.w./.a.!.=.@.%.$.@.+ + + + {.+ + + ",
". N . O O # # a $ @.@.@.$.#.=.!._.^.L.p.q.q.q.q.q.q.q.q.q.q.q.q.q.q.q.q.q.q.q.q.q.q.q.q.q.6.^.E.!.*.@.@.@.@.@.; - - #+- - v - & ",
"b ) ) ) ! ! ! ! ' 0 ' @.#.$.$.@.=.:./.k.q.q.q.q.q.q.q.q.q.q.q.q.q.q.q.q.q.q.q.q.q.q.q.q.$+/.:.=.@.@.@.@.@.E 4 E 7 6 %+J %+6 %+M ",
"9 0 , 0 a a a a ) ) ] ] ! @.@.@.$.'.>.0.w.o.&+q.q.q.q.q.q.q.q.q.q.q.q.q.q.q.q.q.q.q.q.7.(.>.'.%.@.@.@.1 m o o z m 1 y z y *+y n ",
", 0 , ) ) ) ) a ] ) ] ) ) { @.@.$.$.#.!.D.w.o.q.q.q.q.q.q.q.q.q.q.q.q.q.q.q.q.q.p.o.X.D.!.#.@.@.@.@.h n p n n n ; c c v e e c Q ",
", , b b ] ! ! ! b ' ] e ) { ! ! $.@.@.@.!.0.7.q.q.p.p.T.q.q.q.q.q.q.q.q.q.q.q.q.q.7.D.=+@.@.@.@.j o y B p B B -+v e e e v e e w ",
"O O a ' , , ) ) ] b ) d c ! ! !  .@.@.@.@.1.].++p.r.T.p.q.q.q.q.q.q.q.q.q.q.q.q. +].b.'.@.@.@.1 l y z j B j j z n m m n z z z v ",
", , b ) ! ! ! ) ) ) b c ) ! ! ! A e @.@.;+'.g.B.t.p.p.T.q.q.q.q.q.q.q.q.q.q.p.t.A.<.#.@.@.@.1 | G G G G M G G G } %+6 I 4 6 J < ",
"9 , 0 ' , = 0 0 ' ' ' c c c c ) v v e @.$.$.>+;.F.r.T.p.q.q.q.q.q.q.q.q.q.q.q.F.;.'.#.@.@.t R g t t t n -+B B -+-+p -+n V j V t ",
"Y Y Y Y Z . Z X X ` ` X X X ` X ` ` ,+,+@.@.@.c.0.++q.p.p.q.q.q.q.q.q.q.q.p.++0.c.$.@.@.. . . . . . . . . . . . . . . . . . . . ",
"b , b , ) , ) , b O O , b 9 , , b '+, , 9 @.$.'.g.^.m.p.q.q.q.q.q.q.q.q.p.K.^.<.'.$.@., ) , ) ) ) ) ) ) a , ) ) 0 ' ) 0 a ) ) a ",
"c c ) c ) c c ) ) a a c b , a ) b ) c ) , ) @.%.=.)+k.q.q.q.q.q.q.q.q.q.p.k.E.!+@.@.= = 0 ; ; ' a ; c 0 a a c c { ) { { ) ] ! ! ",
"{ { g f e g f g { c 0 ] ] ! ) { d ] ] ] { ! ] @.#.<.^.s.p.q.q.q.q.q.q.q.s.^.<.@.@.{ ! ! ] g { n ! { e g e g e n g e ! c g g c ! ",
"n n n g n n n f e c c e d e c d g { { { { g d e $.d.E. +q.q.q.q.q.q.q.p.k.D.d.$. . .D D n ~ D ~ g ~ D n e e C ..f ~ C D D ~ ~ n ",
"g e n e e n e g e ' w c ) c c ) e e ) ) c ) ] e c #.<.n.~+q.q.q.q.q.p.m.n.<.#.g e e e ] e e e e c e e c v c e e n d ~ ~ n ~ ~ ~ ",
"~ !  .f ! ~ ~ ! ! c ' ] &.] ) {+d ) ] ] d ] ] d ) ) !+D.++q.q.q.q.q.q.++(.}.{ { d d ] d d d ] d ] e A e c ) ] d ' ' c w ' ' ' 0 ",
"$ # # O $ # $ # # .   # O N + # N # N + N # . # N # # :.i.o.q.q.q.q.K.9.:.# + # # # # N # # # N -.-.# N -.  -.# # # # # # # # # ",
"P % $ P P w w P & $ $ = % = % % % % {.$ % {.% % $ w % <.0.++p.p.p.p.M.0.>.$ % $ Q {.{.{.{.Q Q w w w Q ; ; w ; $ ; - $ % ; ; = a ",
"f f n D f f ~ ..o : 2 o 1 2 o / : o 1 1 < n < E m z m m E.n.++ + + +3.E.| 1 | : F ..A ..F F ..F 1 1 1 : : : o : *+1 : 2 2 o / ! ",
"e e e e e e d A n  .n  . .n  .! z n n z n n n o < [ } 3 [ 0.(.(.(.(.(.y h ( m m d e v e d e e C n n n g n ; n D n B z o 1 / ; = ",
"d e e d d d A A  .n  .( (  .( n n n n z n n v n k -+p p p p j p M M j p p u B p C ' ' e A e e e n z D C v e n 1 B z D : 2 ^ q = ",
"e ' e e e e e A o D o o o o o D z n z D n n n o p p k p j l l l M M M y y p B n e e v e B e e A 1 E E : m z : ]+z m o 1 2 o q g ",
"' c ; c ' e ' e n n n n g n g n n n g n n v n o < l [ < [ < G } B -+-+B z n t n e c w e e e e e n n n n v c n h v v ; c g g ) ; ",
"~ ~ ~ D ........ .( 1 o o z D D o o m o m n o : z z z z m m 1 ..< < G 1 1 1 1 1 +.C e ....D ....n n n n n n n n z n n z  . .! g ",
"v w ' ' ' c c c c n e g g g n n n ; v n n ; c  .e e e n e f e C t t v n g n g g e w Q ' c c c e n e v n n n n n t n e g g g = $ ",
". X . Y Y Y Y Y Z ^+,+,+. Y ,+. Y Y Y Y Y Y Y Y . Y . . . .   ,++ + + + + @ + + @ @ @ @ @ @ @ @ + + @   ^+  + +       Z   Z ^+^+",
", ' , 0 , , , , O # O O 9 O O 9 9 0 0 0 9 0 9 9 O 0 a 9 a , a # 9 0 P P 9 9 9 w a O 0 w 0 0 O a 9 9 w P O # 9 ' b ' c ' ' c ' ' ",
"a a 0 0 0 a w w ) 0 a c ) c ; ) ) c c c ) ) c c c ) c ' ) ) ' O 9 ' ' ' ' ' ' '+, , , 0 9 , 9 , P ' P ' 9 P 9 ' c ' c c c c c c ",
"g e e n e g g f e ; ; c e g c e e e g e g e e g c c c c c e v w ' ' w ' ' ' w ' 0 c 0 c 0 c ) 0 ' 9 ' w w P w ' w w 0 0 0 ' ; ' ",
"..o 1 o o o o o D g g  .o  . . . . . . . . . . .e ~ ~ e e D e ' / ( ( D n ( h  .i h u T T u u u t ! h g g g n h e A A d ~ ~ ~ ~ ",
"n e n n e n n n D n e  ... .n D  . .f  .D  .f  .~ ~ ~ f f g e ; / / ( / ( / / / 8 _ j 1 j 1 j o / / / / /+! / / ......+...+...+.",
"! &.! ~ ! ! ~ ! e c c ) { ] e ] ] ] ] e e e ) g ! { { c c ! ; a c ' c ) , c ) c ) c c c e ] ) c , ) c ' ' ' e d A e e n n e e e ",
"' c c ' ) c ' ; ] ' ; ) ] ] c ] c ] c ) c ) c c ! q { ! ! ! c a (+9 (+(+(+(+(+(+_+_+'+_+_+_+_+'+9 '+(+9 (+(+(+'+e e v e v e v c "};
