/* XPM */
static char *_98a74cf3bbf4271fc20f1455515b560vc8Xx42kBxXuSdGC[] = {
/* columns rows colors chars-per-pixel */
"64 64 152 2 ",
"   c #DAAA7F",
".  c #DEAD82",
"X  c #DBAE8D",
"o  c #DFB383",
"O  c #DDB48C",
"+  c #DFB88F",
"@  c #DCB592",
"#  c #DDBB96",
"$  c #D5B79B",
"%  c #D6BA9C",
"&  c #DDBC9C",
"*  c #E0AF84",
"=  c #E2B186",
"-  c #E2B985",
";  c #E2B38B",
":  c #E4BE8C",
">  c #E1B594",
",  c #E3BB94",
"<  c #EABE95",
"1  c #E3BD9B",
"2  c #E9BE9B",
"3  c #F2BF92",
"4  c #DDBEA2",
"5  c #E3BFA0",
"6  c #DEC19D",
"7  c #EBC28E",
"8  c #E6C293",
"9  c #ECC396",
"0  c #E4C29C",
"q  c #ECC39C",
"w  c #ECC89C",
"e  c #F1C894",
"r  c #F1C59C",
"t  c #F3C99F",
"y  c #DCC3A5",
"u  c #DFC6A8",
"i  c #DFCAAB",
"p  c #E4C3A2",
"a  c #EBC6A2",
"s  c #E7C9A7",
"d  c #EDCAA5",
"f  c #E5C6AA",
"g  c #EDC7AB",
"h  c #E4CBAC",
"j  c #EDCCAA",
"k  c #F1C6A2",
"l  c #F2CBA5",
"z  c #F4CAA9",
"x  c #F0CEA9",
"c  c #F1CEA8",
"v  c #F2CFA9",
"b  c #F1CFAA",
"n  c #F2CEAA",
"m  c #F3CFAB",
"M  c #F0CCA8",
"N  c #F5CDAA",
"B  c #F6CEAB",
"V  c #F0CDAD",
"C  c #F1CEAE",
"Z  c #F2CFAF",
"A  c #F3CFAF",
"S  c #F5CCAC",
"D  c #F5CEAD",
"F  c #F7CFAC",
"G  c #F1CDAB",
"H  c #EDD0AE",
"J  c #EED0AE",
"K  c #EED1AF",
"L  c #EFD1AF",
"P  c #EED0AE",
"I  c #F2D0AB",
"U  c #F4D0AE",
"Y  c #F5D1AF",
"T  c #F3D1AD",
"R  c #E4CFB0",
"E  c #E7CEB0",
"W  c #E9C9B0",
"Q  c #EACAB1",
"!  c #EBCBB2",
"~  c #EDCEB1",
"^  c #EECFB0",
"/  c #EECFB3",
"(  c #ECCEB1",
")  c #F2CFB1",
"_  c #F1CFB3",
"`  c #F3CDB1",
"'  c #EDD0B0",
"]  c #EFD0B1",
"[  c #EFD2B0",
"{  c #EDD1B3",
"}  c #ECD1B4",
"|  c #EED0B4",
" . c #EDD2B5",
".. c #ECD3B5",
"X. c #ECD2B7",
"o. c #EED3B6",
"O. c #EED0B6",
"+. c #EDD4B6",
"@. c #EED5B6",
"#. c #ECD2B4",
"$. c #ECD8B5",
"%. c #ECD4B8",
"&. c #EED4B9",
"*. c #EFD4B9",
"=. c #EDD5BB",
"-. c #EFD5BC",
";. c #EED6BC",
":. c #ECD7B8",
">. c #F3D0B0",
",. c #F0D2B0",
"<. c #F0D3B1",
"1. c #F1D3B1",
"2. c #F0D1B2",
"3. c #F1D2B3",
"4. c #F2D5B3",
"5. c #F7D5B0",
"6. c #F6D5B2",
"7. c #F4D6B2",
"8. c #F1D2B5",
"9. c #F2D3B4",
"0. c #F3D4B5",
"q. c #F3D6B6",
"w. c #F5D7B5",
"e. c #F4D5B6",
"r. c #F5D6B7",
"t. c #F4D7B7",
"y. c #F3D3B3",
"u. c #F8D6B3",
"i. c #F2D8B7",
"p. c #F2D8B7",
"a. c #F9D8B7",
"s. c #F2D7B9",
"d. c #F5D6B9",
"f. c #F6D7B8",
"g. c #F6D7BA",
"h. c #F6D7BB",
"j. c #F3D6B9",
"k. c #F1D8B9",
"l. c #F3DABB",
"z. c #F6D9B9",
"x. c #F7D8BB",
"c. c #F7D8BC",
"v. c #F4DBBC",
"b. c #F5DCBD",
"n. c #F6DDBE",
"m. c #F4D9BA",
"M. c #F8D9BC",
"N. c #F8D9BD",
"B. c #F9DABD",
"V. c #F9DABE",
"C. c #FADBBC",
"Z. c #FCDFC1",
/* pixels */
"O O O ; > > > > ; O O @ > > > > > @ > > O @ > , , , > 1 1 > & & & & & & 1 & & 1 & % % % % 4 & % 4 4 4 5 y p 4 4 4 4 4 % 4 4 4 $ ",
"r r w r k k k k k k k k k z z z I z z I M l z F z F F F ` ) ) _ e.e.4.e.s.s.k.4.d.4.y.y.d.u.m.d.V.V.h.Z.c.c.Z.Z.8.Z.c.d.d.V.c.y.",
"9 q q q 2 k r 2 t r w k a k k z a l c a a p a d v g g ~ / / ..X...@...@...@.@.@.] j j ~ ~ >...>.>.../ / } ] ] ] ~ ` ) v j >.j j ",
"r t r t k k z z l l l l z z S S l c c d a q a k ~ ~ ~ ..X.X.s.;.%.%.%.%.%.%.%.%.] g h h j ~ j ~ ] j ( j j j j h p a a p s d a 0 ",
"r r r r k k k z l a a l a l M z c I c d d a d g j ~ ] X.} %.:.;.%.%.%.%.%.%.%.%._ ~ j j ] y.y.] [ ] >.K K K K j d x H d d J d w ",
"q 9 q q r a k 5 w w w w a a a g d x x d s a a d j j K ] X.] ....@.@.@.%.%.@.@.....( ~ ~ ] >...>.4.y...] ] >.] y.K K H H ] y.[ h ",
"t t k k l z z z c l c c v I U >.x x x x d d v v a.y.5.y.i.w.i.k.m.m.m.m.m.c.m.m.4.y...y.4.s.e.e.h.h.h.h.c.c.c.c.l.b.v.l.v.n.v.$.",
": , < < < 2 < 2 0 8 0 0 0 p p a 6 0 0 0 6 0 0 0 w p w p p p p p p p d p p p a p f p p p p f g g f W W W W W W ! i R i i R R i y ",
"; ; > ; ; ; ; ; - * * * = * * = * * * * * * * * o = = * = = o   ; ; ; ; ; > ; ; ; ; ; ; ; ; ; ; ; > ; ; * ; = > : ; ; ; > ; ; ; ",
"k k r k k k k k r < < r r r 9 r r r r r r r r r r r r r r t w 9 k k k z r k k r z k k z k k z k k k k k 2 r k k k k k k k k k z ",
"k a a a a k a a r q 2 q k q r r r a w r r k r k 0 r a q w a w , q p q q w p q w a a k 2 w a a w k k a q 5 2 w p a p a a a a r 2 ",
"g z M M g z v I v a a l z l l z z M M c l l M l a d d a d v d 0 M d g z d g g j z M z S j d g d C z C g a z j U C v z v z z F S ",
"g j d j d j d d d p a a d d a a d v d g d c c d d x d d d c d 0 M g x J d J j j g C J I I v x J C U U J d j I T T T Y Y >.U >.Y ",
"d d d d d c d j a w 0 a l a a d l a d l k c a d a a a s d d d 0 a d s a a w d a v d x x j d c x d d d a p s a d s d d a d s d a ",
"B I T F I I I z F k a z I v z z k c l c c k l l a c l d a B d w a d l t d l d d c l l l c l l l l d l a 9 w a d w w w a w a w a ",
"+ + O : ; @ : O : O o ; , ; O : , ; O ; O : ; + + : + + + , + O , + + + : @ : O O O O O O O + O + + + + O O + + , , @ , , : , # ",
"8 1 8 0 0 0 0 8 5 5 p 0 p 5 p p p 1 p 0 & & p p 0 0 0 0 0 p 0 0 6 8 6 0 0 2 0 0 w 6 # 0 w 0 0 0 s 0 p p p s p p p y 6 6 y p p 0 ",
"I I T T I T Y Y ) y.C ) >.>.>.>.>.e.y.y.>.>.y.e.] >.[ [ y.y.7.y.[ $.y.y.y.6.>.` T d a d J P x x I j j j >.] K j $.y.$.7.y.5.C g ",
"d d l d c c c c j j g j C C C C C K U K j j j U 4.s.s.4.k.i.m.k.v.v.k.k.d.d.d.s.7.I x T 5.5.T 5.>.>.K U j j U y.d s x T U v p 1 ",
"d d d c d d c d j U U >.) ) C C C U ] j K j K >.R X.E } } } X.} :.....X.X.! ( W P a 0 d x x c d K j K j d d K y.H H T 7.y.>.a 0 ",
"w d w d d d d c U j U j C >.C ) j j K U j j j >.X.X...X...@.@.@.:.:.....! X.( ~ x w 0 s d d s d >.>.>.U j j >.e.b T T Y 5.5.z l ",
"a a d d w d d d g g j j j j g v j C j j j j j K 4.4.4.s.s.m.d.d.k.k.k.$.s.4.y...Y d s x T T T J ] U ~ j j j K >.s s a a d l a a ",
"P T T T T T T 5.>.>.>.y.>.u.y.y.e.a.u.e.y.>.e.a.j K j K K K ] K H H K K U C K I T d w d T T j U j d s j j j g j v c v v B c l k ",
"8 0 9 0 0 0 0 w f p a p g a g a p p s p p p p d s d d d d d d d s s d d d d d l J s 0 a d d a a K j s j K K j s w w w k k a 2 , ",
"; = ; = ; = ; = = . . . ; * . = ; ; = ; = ; = = ; = ; ; = ; = . O @ @ > @ > > > @ @ @ @ @ $ @ @ X @ O X X X O @ + O ; ; X = = ; ",
"w w q r q q r 9 r q < q r q q r r r e w r q w r r t t r t k t < w r w w t w r w r r w q r q r r r r w w 0 9 t l k t k k k k k z ",
"q 2 0 q w q q q a 1 < 2 w 2 2 w q 2 2 q q q q q q w w q p w 2 # 9 w e 8 8 8 8 8 q 9 q 9 < q 3 q 8 8 8 8 : 8 8 8 w w q w w q q w ",
"g M M l d g g M C a a j C g M C g v j g d j g j a g g a d g a p d w w w w s w w k k k d l k k d w w w 0 8 0 w a a w p a p a a q ",
"C C C C C C C C >.g g U >.C C >.C C U j >.C C C ~ ) ) g j >.g a g z C j j g ) j ~ ~ ] ] ( ] ] ~ ~ ) ) g j g ] ) v v v v v v v v ",
"j j v g j g j j J d p d j j j j j j d g j j j g a g d d d j a 0 ~ g g M ` ` ` ` j C ( W ( W ( j z ! ` ` g z ` ` I J U C v v J U ",
"z v v M I v v z z l a v I v M F z T I v z I I v l l v a d v a q l l l l l l z c B l l c c l c N k c k a w a l z v M ` z F ) v M ",
"< 1 , 1 < , 1 , 1 @ + , , , > , , , < 1 , 1 , < 1 0 2 2 1 q 1 @ - - - - - -   - = = = = = = = = - - - - o o - : > > > > # > > > ",
"; : ; < < , , 2 1 < , 2 1 2 2 p 1 2 1 2 2 , 1 q 0 p p p y p u p p 5 5 5 5 p 5 5 p % & 4 y 5 4 p & & 5 4 y p 1 p y y u y y s y % ",
"t k k k z z z z w q w p a a a g M a l z a a a z v j g j ~ ( ! ! ` ` ~ ` ` ` ` F V.y.y.y.d.e.d.m.a.a.a.a.B.a.V.a.c.Z.B.b.B.Z.B.$.",
"9 q r q 2 2 2 2 k k l l z k g z z v z v M a a C U U >.>.y.8.8.s.d.d.d.d.d.d.c.g.>.h h ~ ) ] ( ] y.y.e.y.] >.>.K ] y.[ K [ 7.[ j ",
"r q r k k k k 2 l k l k k M z z M a a d a 2 w a v j ) ) _ 8.s.8...../ X.X.X.X./ ) h j j ] j ~ ] ~ ~ ~ j } j j j p a a s d d a 6 ",
"r r t t l z z z t w l d k M z z v l g c d p a d j v C j ~ y.8.8.X.X.X.X./ ! %.%.4.~ ~ >.y.y.y.y...>.[ H } H H E s d d d s d d 0 ",
"< < 2 w r r k k l t k c a z z z C v j v d w d I T >.y.>.y.d.s.s.%.s.%.;.s.;.s.%...j h ) ..~ ~ y.@.[ K ..H ....K j ] ] j K K K s ",
"r r t k z z z k k k t a k z z z x d a d s s a I C j ) >.~ / y...4.4.4.4...4.y.@.m.y.~ d.e.y.y.d.i.i.i.p.$.i.p.p.k.B.Z.l.V.Z.b.4.",
"9 r q w r 5 q q w w w a a a a k s s d d w s a j d d j j h g h g j s s s j s s j j f p s g h f g h h h j E H H E E } E j R ..R h ",
"= = = = o ; o * *     * * *   *     . . . *   * * * * * * = *   ; = ; = = = = ; ; ; ; > ; ; ; ; ; ; ; ; ; ; ; ; ; ; ; ; ; ; ; ; ",
"t r t r k r k r t < < r t 9 r r t e r r 9 r 9 r < r 3 2 r r q < q w q r q q r r k r r r k r k k k k k k 2 r k k q w k q 2 k k 2 ",
"a a k a k a a k k 2 2 a t r 2 k t k a k r k t k q w a q r k q , q 0 0 2 q q 0 w 2 a 5 5 q p p w 2 p a q 2 2 a a M k M M k l z z ",
"M M g v d g v g M a q l l z k M c l l l M z l l c z z l l l k q l g M l M d g g M M z z l g M j z M d g d g d j g d z a g g a z ",
"j j j g j j j v d a a d c d a c g M M M M g c d c v d d d v d 0 z ~ j ) j ) j C C C U U j I U I g I U j d d J T v I J U U I I j ",
"g d j d d j d g d w 0 a k a a k d d k k a k l d a a a a a k p 1 g d a j d j d g d d d l d d d d a d d a s a d d j c I I j I I I ",
"I z C v z I I z z a w l B l k N c k l l c l l c k k k k l c d w c M M v M v M M c c l c c c l c l d x d a k l c w w a 0 w w w q ",
"1 , , < 1 , 1 , , ; O , < : > , : , : > : , ; , : , , , , < < O , , , > > , > , , , , : , , , : + + , : + O + , , , , , , , , , ",
"8 & 1 8 8 0 0 8 % 1 1 5 & 5 & & & & # 1 & # & & 1 0 & 8 0 6 0 0 & & & & & 1 & 1 6 # # # # 6 6 0 0 0 6 p p 0 p 1 p y 1 & p p 5 2 ",
"v v j U v v I T >.e.u.>.y.u.>.` e.>.y.y.4.j 4.a.] K ] ] >.y.y.T 4.i.m.k.d.y.d.e.5.T x T 5.5.T 5.y.y.y.e.e.e.>.e.7.y.e.u.u.>.` z ",
"d d d d d d c x j C j C C j C z K j j K j j j >.4.s.k.m.s.m.m.k.@.@.[ [ ~ ) ] ] c d s d c d d P j j j g j p j U j H K >.y.` p 5 ",
"c d d c c c x x C j C ) ) C ) j j j j K j j s j X.E } } } } ..} $.$...} } ( H } J w w d x d d d j K U J s d j y.H K U e.u.F S 5 ",
"d w d d d d d x >.U >.>.>.>.>.U K j K U j j j >.} } X.} ..@.@.@.$.$.$.[ [ } H j d d s d H d d x y.a.a.e.] K e.C.K ] >.y.u.>.S g ",
"w a p a w d w d j j j j g j g j j j g j j s j >.4.@.s.4.s.4.i.k.H E E H K j h j d a 0 d d d d d j j j j s a j ~ s s p a g g k p ",
"I I I U T T T T C ) y.>.>.K U U >.>.] >.] j >.e.K K K K ] ] y.T 4.4.i.y.y.y.y.y.Y J d T T U T T j j j j j j j j K j j K C C z g ",
"s 0 w w w a a a a j d g g g j j j p s j j p a C d d d j d v d J h h s j g j g g d 0 6 w a a a d j d s j j j j j h j d g g g 5 1 ",
"; * ; = = = = = o X . . ; = . ; = = = = = = = = ; = ; ; ; ; O . > > > > > @ > > @ @ @ @ @ @ @ @ > > @ O X O > > O O O o O o X X ",
"r w r q r r r r < , < < 9 < < 9 9 q q q 9 q 9 9 < q 2 9 2 r 2 , 9 q 8 8 9 9 9 0 2 < q 0 q q < 2 9 9 0 8 < , 9 w t w a w w a w w ",
"2 2 q q q 2 0 0 k q 2 a k a p k k a a a k k a a a k a w k k w < 9 w w w w w w e r r r q 9 r 9 r 8 w 8 w 9 8 9 w a w a a a a a a ",
"g d d j d g g v d p p a d g a d d d g d g d d g a a a a a d s 0 w w 0 w w w 0 w q a q a q a k q w 9 w 0 0 8 0 w 0 0 q q q w p w ",
"T >.y.>.>.>.>.>.U g g C >.C C C C C C C C C C C d I I d d U d w ` ) ) U j ) ~ C / ~ ( ! ! ( ( ( h z ~ g g g j ~ d x x c I I I I ",
"j d j j d j j j U j d C T C j U C C v C U C v C I I I v v g d p ` ` ) ` ) ` ` ` 8._ ..y...y...>.` ` ` ` Q z ` ` T T T Y T Y T Y ",
"z B z I z z I z d a a k M l d l l l l d d d k g z M M a a z p 2 a w a k r a k a k a a a d l k a r k a w w w d c x d d j j d d d ",
"w a a w k a w p l w p k l l a l a l a k a k a a z S M z z z a 2 7 9 7 7 7 7 7 7 3 3 e 3 3 3 3 e 9 e 7 9 7 7 7 e d d s d s d s a "
};
