/* XPM */
static char *e9cd6838c5924632e343ea58a31159dbN5ul9LLZxzTSjF3i[] = {
/* columns rows colors chars-per-pixel */
"64 64 220 2 ",
"   c #010101",
".  c #0A0505",
"X  c #0C0A0A",
"o  c #0C0608",
"O  c #110B0C",
"+  c #170D04",
"@  c #151414",
"#  c #24170A",
"$  c #26131A",
"%  c #210F16",
"&  c #2F2114",
"*  c #1E1F20",
"=  c #3B1F29",
"-  c #351B24",
";  c #251D20",
":  c #272625",
">  c #382526",
",  c #333232",
"<  c #3A3A3A",
"1  c #44270D",
"2  c #563311",
"3  c #4D2C17",
"4  c #6C3F14",
"5  c #4A2633",
"6  c #562C3B",
"7  c #48272B",
"8  c #693E22",
"9  c #704116",
"0  c #58473B",
"q  c #6A3749",
"w  c #783949",
"e  c #753E51",
"r  c #4B4B4C",
"t  c #555656",
"y  c #5D5E5F",
"u  c #724E55",
"i  c #686868",
"p  c #777878",
"a  c #A73D2D",
"s  c #A35D1C",
"d  c #985B2B",
"f  c #864B30",
"g  c #A85B24",
"h  c #AD4231",
"j  c #B84633",
"k  c #AA5529",
"l  c #9C6635",
"z  c #AE6627",
"x  c #B96826",
"c  c #B36F35",
"v  c #905419",
"b  c #C34935",
"n  c #C94936",
"m  c #D54E3A",
"M  c #DA503B",
"N  c #D6533F",
"B  c #E4533D",
"V  c #EC543D",
"C  c #F2573E",
"Z  c #F4583F",
"A  c #C87728",
"S  c #D37B28",
"D  c #C37A36",
"F  c #D17F30",
"G  c #C36C29",
"H  c #863F4A",
"J  c #884659",
"K  c #985A4E",
"L  c #B95647",
"P  c #907259",
"I  c #BD665A",
"U  c #A77958",
"Y  c #B27B49",
"T  c #875B64",
"R  c #994F69",
"E  c #A05B60",
"W  c #A55A75",
"Q  c #B85D7D",
"!  c #8F7768",
"~  c #AF6766",
"^  c #BA6A68",
"/  c #B9756B",
"(  c #AC6479",
")  c #B37E76",
"_  c #AD727C",
"`  c #C85645",
"'  c #D65844",
"]  c #EC5740",
"[  c #F35941",
"{  c #C76A5B",
"}  c #C5756E",
"|  c #CD833B",
" . c #D68435",
".. c #DA802E",
"X. c #EC8A2C",
"o. c #E3842A",
"O. c #F38E2D",
"+. c #FE942E",
"@. c #F7902E",
"#. c #F18D30",
"$. c #E58A32",
"%. c #BF844F",
"&. c #BD8958",
"*. c #A8897A",
"=. c #B08B7C",
"-. c #C18041",
";. c #C38C5A",
":. c #C4976B",
">. c #C69364",
",. c #C9857A",
"<. c #C69E7A",
"1. c #E9A664",
"2. c #B66884",
"3. c #AD6F83",
"4. c #C57C97",
"5. c #DB7699",
"6. c #C76C8C",
"7. c #E97AA2",
"8. c #F07AA6",
"9. c gray55",
"0. c #858686",
"q. c gray58",
"w. c #9B928C",
"e. c #A59385",
"r. c #B99487",
"t. c #A99C94",
"y. c #BC9A96",
"u. c #B28D8D",
"i. c #BEA18E",
"p. c #A8A19C",
"a. c #BAA59C",
"s. c gray65",
"d. c #B6AFAA",
"f. c #B8ABA3",
"g. c #BEB4AC",
"h. c #AFB0B0",
"j. c #BFBFBF",
"k. c #BAB7B4",
"l. c #B9ADB0",
"z. c #C2938C",
"x. c #C19F97",
"c. c #D1A98C",
"v. c #C8AB99",
"b. c #D3AC9F",
"n. c #C9A583",
"m. c #D399A9",
"M. c #C297A5",
"N. c #EB8DAE",
"B. c #EA97B4",
"V. c #C7A8A7",
"C. c #D2A3A5",
"Z. c #C3B0A2",
"A. c #CDB4A4",
"S. c #C3B3AA",
"D. c #CDBAA9",
"F. c #D5BCAB",
"G. c #D7B9AB",
"H. c #D6A7B3",
"J. c #C5BBB4",
"K. c #CABBB3",
"L. c #C9BDB9",
"P. c #C5B7B6",
"I. c #D5B9B6",
"U. c #E1ADBF",
"Y. c #DDC0AF",
"T. c #CDC0B5",
"R. c #CBC2BB",
"E. c #D6C4B8",
"W. c #E4C5B3",
"Q. c #E6C8B6",
"!. c #EBCCBA",
"~. c #E7C8B7",
"^. c #F1CFBD",
"/. c #EED0BD",
"(. c #F2D1BE",
"). c #DDB8C3",
"_. c #E9B9CA",
"`. c #F7ADC7",
"'. c #CBC4C3",
"]. c #CEC9C5",
"[. c #C9C9C9",
"{. c #D4CDCC",
"}. c #D4C8C7",
"|. c #D3D0CF",
" X c #CED0D0",
".X c #D5D5D4",
"XX c #DCD8D7",
"oX c #DCDBDB",
"OX c #DBD4D3",
"+X c #DACCD1",
"@X c #F5D4C1",
"#X c #F9D7C3",
"$X c #FDDAC6",
"%X c #FFDDC9",
"&X c #E7DCDE",
"*X c #F0D0DC",
"=X c #EAC6D3",
"-X c #FFE0CB",
";X c #E3E3E3",
":X c #EEEEEE",
">X c #E8E5E5",
",X c #F0EFEF",
"<X c #EEEFF0",
"1X c #EFF0F1",
"2X c #F4F4F4",
"3X c #F7F7F8",
"4X c #F7F8F9",
"5X c #F7F8F9",
"6X c #F8F8F8",
"7X c #F9F9F9",
"8X c #F8F9F9",
"9X c gray98",
"0X c #FBFBFB",
"qX c #F9FBFB",
"wX c gray99",
"eX c #FDFDFD",
"rX c #FEFEFE",
"tX c #FFFFFF",
"yX c #FDFFFF",
"uX c #FBFBFB",
/* pixels */
"rX2X2X9X2X,XwX6X:X9X5X:X9X9X:X9X9X:X9X9X:X6X0X:X6XwX,X6XwX:X2XrX:X2XrX:X2XrX,X2XrX,X2XrX1X2XrX2X,XrX2X,XwX2X,X0X2X,XwX2X,XwX6X:X",
"rX2X2X9X6X:X9X9X:X9X9X:X9X9X:X6X6X:X6X9X,X6X9X,X2X0X:X6XuX:X3XrX2X2XwX<X2XrX2X2X0X,X2XwX2X2X9X2X2X0X2X2X0X2X2X0X2X1X0X2X,XwX2X:X",
"2X2X9X2X2X9X2X2XrX2X2X9X2X2X9X2X2X9X2X2X0X2X2X9X2X1X5X2X2X9X2X2X9X2X2X9X2X2X2X6X2X6X2X2X6X6X2X6X6X,X2X9X2X2X9X1X6X9X,X6X0X1X6X0X",
":X2X9X:X2XwX2X2XrX,X2X0X:X2XwX2X2X0X2X1XrX2X,XrX2X2XrX2X:XrX3X<XrX2X:XrX6X:X9X6X:X0X6X:X5X6X:X6X0X:X9X9X:X6X0X:X6X0X,X6X0X,X6XwX",
"2X2X2X2X2X2X6X2X2X9X2X2X6X2X2X2X6X2X2X6X2X2X6X:X:X5X2X2X6X2XS.) P.2X6X2X2X9X2X2X5X2X2X9X2X2X6X2X2X5X2X2X6X2X2X6X2X2X9X2X2X5X6X2X",
"rX9X:XrX9X:X0X6X:X0X9X:X9X9X:XwX9X:X9X0X:X9XXX/ / a.oX6XwX;X{ C ` y.3X,X2XrX:X2XrX,X2XrX,X2XrX2X2XrX2X,XrX2X,XrX2X1XwX2X,X0X2X:X",
"2X2X6X2X2X2X2X2X2X2X2X2X2X2X6X2X2X2X2X2X2X6Xz.V C M ^ {.6X>X{ Z Z M x.2X2X2X2X6X2X6X2X2X2X2X2X2X2X2X2X6X2X2X6X2X6X6X2X2X6X2X2X6X",
":X2XrX:X2XrX2X2XrX,X2XrX:X2XwX2X2XrX2X1XwX1X} Z C [ V I ].,X{ Z [ [ ` K.9X:X0X9X:X0X9X:X0X9X:X9X9X:X9X0X:X6X9X:X6X0X:X6X0X,X2XrX",
"6X2X2X2X2X2X2X2X2X2X2X2X2X2X2X2X2X2X2X2X2X2X} Z [ [ [ V I OX} C [ [ [ I &X6X2X2X2X2X2X2X2X2X6X2X2X2X2X2X6X2X2X2X2X2X2X2X6X6X2X2X",
"rX6X,XrX9X:XrX9X:XrX6X:XrX9X:XwX9X:X0XrX:X2Xz.V [ [ [ [ B ) ) [ [ [ Z B r.6X,X2XrX2X2XrX,X2XrX2X2XwX2X2XrX2X1XrX2X,XrX2X,X0X2X:X",
"6X2X2X2X2X2X6X2X2X2X2X2X2X2X2X2X2X2X2X2X2X4Xz.V [ [ [ [ [ ' K ] [ [ [ Z ` {.5X2X6X2X2X6X2X2X6X2X2X6X2X2X6X2X2X6X6X2X6X2X2X6X6X2X",
":X2XwX2X2XrX,X2XrX2X2XrX2X2XrX2X2XrX2X2XrX3XS.B [ [ [ [ [ [ h M [ [ [ [ B u.8X5X:X9X6X:X9X9X:X0X9X:X6X9X:X6X0X:X6X0X:X6X0X,X2XrX",
"2X6X9X2X2X9X2X2X9X2X2X6X2X2X9X2X2X2X2X2X5X5X|.' [ [ [ [ [ [ B b [ [ [ [ [ L XX5X2X6X2X2X6X2X2X2X6X2X6X6X2X6X6X2X6X6X2X6X5X2X2X9X",
"rX2X:X0X2X:X9X6X:X9X6X:X9X9X:X9X9X:X9X9X1X5X1X{ [ [ [ [ [ [ [ j B [ [ [ [ m y.2X0X2X2XrX2X2X0X2X,XrX2X,X0X2X,X0X2X,X0X2X,XrX2X:X",
"rX2X2X9X2X2X9X2X2X2X2X2X9X2X,X6X2X2X6X6X2X2X5Xz.V [ [ [ [ [ [ M n [ [ [ [ V ~ :X9X2X2X9X2X2X9X2X2X9X2X2X9X2X2X9X2X2X5X2X2X0X6X1X",
":X2XwX:X2XwX2X2XwX2X2XwX2X2XwX2X2XrX2X1XrX2X2X}.' [ [ [ [ [ [ ] b [ [ [ [ ] L OX,X0X6X:X6X6X:X6X5X,X6X6X:X6X6X:X6X0X,X6X0X,X2XrX",
":X2X9X2X2X9X2X2X9X2X2X0X2X2X0X2X2X9X2X2X9X2X2X1X} C C [ [ [ [ [ n ] [ [ [ [ n P.2X9X6X,X5X6X,X6X9X,X6X6X,X6X6X,X6X8X,X6X0X1X6X0X",
"rX6X,X9X2X2X9X2X2X9X2X,X9X6X:X9X9X:X6X6X:X6X9X1XK.' Z [ [ [ [ [ m m [ [ [ ] n x.wX1X2X0X2X2X0X2X2X0X2X2X0X2X2X0X2X1X0X2X,X0X6X,X",
"rX2X2X9X6X,X9X2X,X9X2X:X9X2X,X5X9X:X6X6X:X2X9X2X:X/ V [ [ [ [ [ ] a B [ [ ] n r.wX1X2X0X2X2X0X2X2X0X2X,X0X2X1X0X2X,X0X2X,X0X2X,X",
",X2X9X2X2X9X2X2X0X2X2X9X2X2X0X2X2X9X2X2X0X2X2X9X2X'.` C [ [ [ [ m a a m [ [ b y.1X0X6X,X6X6X,X6X6X,X6X6X,X6X9X,X6X0X2X6X8X,X6X0X",
":X2XwX:X2XrX1X2X9X2X2X9X,X2X9X2X2XrX1X2XrX1X>XrX2X,Xa.' [ [ ] ' a m m j Z V j v.1XwX5X,X0X6X,X9X8X,X6X6X:X6X0X:X6X8X,X6XwX,X6XwX",
"9X2X2X9X2X2X9X2X2X9X2X2X6X2X2X6X2X2X2X5X,XJ.p..X6X8X:Xr.N n k x x G x h b m j '.rX2X2X5X2X2X5X2X2X8X2X2X9X2X2X0X2X2X6X2X2X5X6X1X",
"rX2X:XrX2X:XrX6X:X9X9X:X9X9X:X9X9X:X5XwX XA.(.L.6X0X:Xg.c ..+.+.+.+.+.X...g K >XrX,X2XrX,X1XrX,X1XrX2X2X0X2X,XwX2X,X0X2X,X0X6X:X",
"2X9X9X2X2X6X2X2X6X2X2X9X2X2X6X2X2X9X2X2XL.@X$XE.2X2XS.| +.+.#.+.+.+.+.c @.+.D f.1X6X6X2X6X6X2X6X6X2X6X2X2X6X6X2X6X6X2X6X6X2X2X6X",
":X2XrX2X2XrX2X2XrX2X2XrX,X2XrX2X2XrX2X:XD.$X#XE.2XL.| +.+.c A +.+.+.@.%.| +.+.F a.wX0X:X0X6X:X6X9X:X9X0X:X6X0X:X6X0X:X6X0X:X2XrX",
"2X2X2X2X2X2X2X5X2X2X2X2X9X2X2X2X2X2X2X:XS.$X#XR.;X;.+.+.z f #.+.+.+.@.<.>.+.o.A | ].5X6X2X6X6X6X2X9X2X2X6X6X2X2X2X6X6X6X2X6X6X2X",
"rX2X:XrX6X:X0X9X:XrX9X:XrX9X:X9X9X:X9X2XS.%X#XL.v.X.O.A # 1 g z D  .F c.c.X.X.l $.>.:XwX2X2XrX,X2XrX2X,XrX2X2XrX2X,XwX2X,XrX2X:X",
"2X6X2X2X6X2X2X2X2X2X2X2X2X2X2X2X2X2X2X2XK.#X$Xg.U g & +       = 3.v.v.Q.~.Y F 8 z $.T.4X2X2X2X6X2X2X2X6X2X2X2X2X2X6X6X2X2X2X6X2X",
":X2XrX:X2XrX,X2XrX2X2XrX,X2XrX2X2XrX2X2X'.!.%Xt.u.6           . W I.%X%X%XW.0 . 2 o.:.>X0X9X:X9X0X:X6X0X:X2X0X:X5X0X,X2XwX,X2XrX",
"2X9X9X2X2X2X2X2X2X2X2X9X2X2X9X2X2X5X2X2XXXF.%Xf.4.$   @ p t     q C.@X%X%XA.O     3 U oX6X2X2X6X6X2X2X6X2X2X6X2X2X6X2X2X5X2X6X5X",
"rX2X,X0X9X:XrX9X:X9X6X:X9X9X:X9X9X:X6X9X>Xg.@XA.2.o   p rX:X<   5 m./.%X%Xe.t @   = M.XX2X2XwX,X2XwX2X2XrX2X,XrX2X2XrX2X,XrX2X:X",
"9X2X2X9X2X2X9X2X2X6X2X2X6X2X2X2X5X2X2X9X2X|.D.H.W     h.rXrXi   5 m.~.%X@XR.6Xi   - H..X2X2X6X2X2X6X2X2X6X2X2X6X2X2X9X2X2X9X2X1X",
":X2XrX:X2XrX2X2XrX,X2XrX2X2XrX1X2XwX2X,XwX<Xh.y.(     9.rX2Xr   6 m.!.%X!.XXrX9.  - H.[.uX3X,X3XuX,X7XuX<X6X9X:X6X9X,X3XwX:X2XrX",
"2X2X9X2X2X9X2X2X9X2X2X0X2X2X9X2X2XuX2X2X9X3X;XP.6.O   : s.0.X   u H.!.%XY..XrXi   5 ). XuX3X,X3X3X,X6X6X,X3X6X2X6X6X,X6X9X2X2XwX",
"0X2X:X9X2X:XrX2X:X9X6X:X2X9X:X9X6X<X6X9X,X6X6X'.B.-     .     O 6.I.@X%XG.i q.@   e _..X2X2XuX2X2XwX2X,XwX2X2XwX2X2XuX2X,XwX3X:X",
"rX2X2X9X2X2X9X2X:X9X2X2X9X2X:X9X6X,X6X9X<X6X2X[._.R           q B.I.%X%XG.@     . 2.+XoX2X2XuX2X2XuX2X2XwX2X,XwX2X,XwX2X2XrX2X:X",
"2X2XwX2X2X9X2X2XrX:X2X9X,X2X9X,X2XwX2X2X0X2X2X.X+XN.e o   . 6 5.).Q.-X$XW.;     5 B.'.oX9X6X,X9X3X,X6X6X,X6X6X,X2X9X2X2X6X2X2XwX",
":X2XwX:X2XrX,X2XrX2X2XrX2X2XrX2X,XwX2X,X0X2X2X;Xp.*XN.2.J Q 7._.T.(.$X$X#XT % > 6._.'.<X9X9X:X9X6X:X6X9X,X6X6X<X9XwX:X2X9X:X2XrX",
"wX6X2X6X6X2X9X6X2X9X2X2X9X6X,X6X6X,X6X6X2X2X9X,Xp.d.*X`.B.`.=XT.Q.*.y.G.%XC.6.5.`.]..X0X2X2X9X2X2XwX2X2XuX2X2XuX2X2X9X2X2X9X2X2X",
"rX2X:X9X2X:X9X2X:X0X2X:X9X9X:X9XwX<X6X6X:X6X9X2XXXt.g.[.{.].J.!.~.J w ) %X!.V._.'.h.2XrX:X2XrX2X,XwX2X,XwX2X,XwX2X2XrX2X:XrX2X:X",
"2X2X6X2X2X2X2X2X6X2X2X6X2X2X9X2X2X6X2X2X9X2X2X9X3XL.G.!.Y.~.@X-X^.^ H b.%X%X@XA.w.;X3X2X2X5X2X2X2X2X6X2X2X2X2X2X2X6X2X2X9X2X2X9X",
":X2XrX,X2XrX2X2XrX2X2XwX:X2XrX2X,XrX2X,XrX2X,XrX2X>Xk.G.%X%X%X$X(.b.v.$X%X%X!.f..XwX2X:X9X9X:X9X9X:X9X9X:X9X9X:X6X0X:X9XrX:X2XrX",
"6X6X2X2X2X2X2X2X2X2X2X2X2X2X2X2X6X2X2X2X2X2X3X2X2X6X:Xk.S.!.%X$X$X%X%X%X$XF.f.XX9X2X2X3X2X2X5X2X2X2X2X2X2X2X2X2X2X2X2X2X2X6X2X2X",
"rX2X:XrX6X:XrX9X:XwX9X:XrX9X:X9XuX:X9XuX:X6X9X:X6XwX:X2XXXa.r.A.W.W.G.y.e.t.s.:XrX,X2XrX,X2XrX2X2XrX2X2XrX2X2XrX2X,XrX2X:XrX2X:X",
"2X2X2X2X2X2X2X9X2X2X2X2X2X2X2X2X2X2X2X2X2X2X2X6X2X2X3X6X9X;XY E ( ( R ! P Z.F.].2X3X2X6X2X6X2X2X2X2X2X9X2X2X2X2X2X2X2X2X2X2X2X9X",
":X2XrX2X2XrX,X2XrX2X2XrX2X2XrX2X2XrX2X2XrX2X2XrX2X,XwX2X,X,XY } 8.E $ y W.%X@XR.:X0X9X:X0X5X:X9X9X:X9X9X:X9XrX:X9XrX:X9XrX:X2XrX",
"2X2X2X2X2X2X2X2X2X2X2X2X2X2X2X2X2X6X2X2X2X2X2X2X2X2X3X3X3X:X&.I H X   , t.W.Q.].2X3X,X1X6X2X2X2X2X2X2X9X2X2X2X2X2X9X2X2X2X2X6X6X",
"rX6X:XrX9X:XwX9X:XwX9X:X0X9X:X9X9X:X9X9X:X9XwX:X3XuX<X4XuX>X:.v o   ; [.<Xd.P L.rX3XK.D.1X2XrX2X2XrX2X:XrX2X:XrX2X2XrX2X,XrX2X:X",
"9X2X2X9X2X2X9X2X2X9X2X2X9X2X2X2X6X,X6X6X1X6X6X2X6X6X2X2X6X2Xn.v   > ( >X1Xi 2 -.a.S.>.>.1X2X9X2X2X9X2X2X9X2X2X9X2X2X9X2X2X9X2X2X",
":X2X9X2X2XrX,X2X0X2X2XrX2X2X0X2X2X0X2X,X0X2X1X0X2X,XrX2X,XrXF.z 5 6.5.|.q.y & ..O...O.1.6X6X:X5X9X:X9X9X:X9X9X:X9X9X,X2XrX:X2XrX",
"2X2X9X2X2X9X2X2X9X2X2X9X2X2X9X2X2X9X2X2X0X2X2X0X2X1X0X2X2XwXoXc ^ 8.! *.r j., s +.+.+.1.2X6X2X6X2X2X2X9X,X2X9X1X2X6X2X2X2X2X2XrX",
"rX2X:X9X6X:X9X9X:X9X2X:X9X9X:X6X6X:X6X9X,X6X6X:X6X0X,X6XwX,X,X&.{ 4.j.P # : + x +.+.o.>.:X2X0X2X2X0X2X2X9X2X2XrX2X2X9X2X2XrX2X:X",
"9X2X,X9X2X2X9X2X,X9X2X1X6X2X,X9X6X,X6X6X,X6X0X,X6X9X,X6X5X,X9XD.l l.uXK.d & 9 @.+.+.S =.1X2X0X2X2X9X2X2X9X2X2X9X2X2XrX2X,X9X2X2X",
"2X2X9X2X2X9X2X2X0X2X2X0X2X2X9X2X2X0X2X2X0X2X2X0X2X,X0X6X2X0X6XoXU }.rX9X<.$.+.+.+.+...T.0X6X,X5X9X,X2X9X,X6X9X,X2X9X2X2X9X1X2XwX",
":X6XrX:X2XrX2X2XrX2X2XrX2X2XrX2X1XrX2X2XwX2X2X0X2X,XwX2X,X0X6X1XJ.e.rXrX Xl +.+.O.X.&.;X9X9X,X2X9X:X9X9X:X9X9X:X2XrX:X6X0X:X2XrX",
"9X2X2X6X2X2X2X2X2X2X2X,X6X2X2X2X6X,X6X9X1X6X5X,X6X6X2X2X8X1X6X9X:Xs.;XrX*.# ..+.X.l R.qX2X2X0X2X2X9X2X2X9X2X2X9X2X2X9X2X2X9X2X2X",
"rX2X:X0X2X:X9X2X:X9X2X:XwX9X:X9X0X,X5X0X:X6X0X:X6X0X:X6X0X,X2X0X:X>Xj.q.t * 9 A D g.2XrX1X2XrX2X2X9X2X2XrX2X,X9X2X:XrX2X:XwX2X:X",
"2X2X9X2X2X9X2X2X6X2X2X9X2X2X9X2X2X5X2X2X6X2X2X6X2X2X5X2X2X0X2X2X9X5Xk., h.r & *.'.2X6X1X9X2X2X2X2X2X2X6X2X2X9X2X2X6X2X6X6X2X2X6X",
":X2XrX:X2XrX2X2XrX2X2X0X,X2XrX,X,XwX,X2XrX2X,XrX2X,XwX2X,XwX6X,XrX2X:X9., X t 1X2X9X2X:X9X9X:X9X9X:X9X9X:X2X9X:X9XrX:X2XrX:X2XrX",
"9X2X2X6X2X2X9X2X2X2X2X2X2X6X2X2X6X2X6X6X2X2X6X2X2X6X2X6X2X2X2X5X2X2X2X:Xs.p [.2X9X2X2X9X2X2X6X2X2X6X2X2X6X2X2X9X2X2X6X2X2X9X2X2X",
"rX9X:XrX9X:X0X9X:X0X6X:XwX9X:X9X0X:X6X0X,X5X0X:X5X0X,X6X0X,X2XwX,X2X0X,X4XrX2X2XrX2X2XrX2X2XrX2X2XrX2X:XrX2X2XrX2X2XrX2X:XrX2X:X",
"2X2X2X2X2X9X2X2X2X2X2X6X2X2X5X2X2X6X2X2X6X2X2X6X2X6X6X2X2X6X6X2X6X6X2X6X2X2X6X2X2X2X2X2X2X2X2X2X2X2X2X2X2X2X2X2X2X2X2X2X2X2X2X6X",
":X2XrX,X2XrX2X2XrX2X2XrX,X2XrX2X2XwX1X2XwX2X,XwX2X,X0X2X1XrX2X,XwX2X,X0X6X,X0X5X:X9X6X:X9X9X:X9X9X:X9XrX:X9X0X:X9X9X:X9XrX:X6XrX",
"2X2X9X2X2X2X2X2X2X2X2X6X2X2X6X2X2X9X2X2X5X2X2X6X2X2X6X6X2X8X2X2X6X6X2X5X2X2X5X2X2X9X2X2X6X2X2X6X2X2X9X2X2X2X6X2X2X9X2X2X6X2X2X9X"
};
