/* XPM */
static char *_f609ee178cd456eb1bd1d50cc38efaf5OSZv0qSeWutX8uO[] = {
/* columns rows colors chars-per-pixel */
"30 30 89 1 ",
"  c None",
". c #D21063",
"X c #D31063",
"o c #D31064",
"O c #D31164",
"+ c #D41164",
"@ c #D41265",
"# c #D51365",
"$ c #D51366",
"% c #D71567",
"& c #D81869",
"* c #D91869",
"= c #D91969",
"- c #D9196A",
"; c #DC1D6C",
": c #DC1E6C",
"> c #DC1E6D",
", c #DF2471",
"< c #E02571",
"1 c #E02672",
"2 c #E53178",
"3 c #E53179",
"4 c #E53279",
"5 c #E6347A",
"6 c #E7347B",
"7 c #E7367B",
"8 c #E7387D",
"9 c #E8387D",
"0 c #E93B7F",
"q c #E93C7F",
"w c #EB3C80",
"e c #EB3D80",
"r c #EF3F82",
"t c #EA4081",
"y c #EA4182",
"u c #EC4484",
"i c #EC4685",
"p c #EC4785",
"a c #ED4786",
"s c #EE4886",
"d c #EE4C88",
"f c #EE4E89",
"g c #EE4F8A",
"h c #F14586",
"j c #F24887",
"k c #F24B89",
"l c #F34D8A",
"z c #F0548C",
"x c #F0578E",
"c c #F1578E",
"v c #F1588F",
"b c #F45A91",
"n c #F35F93",
"m c #F36194",
"M c #F36294",
"N c #F56D9A",
"B c #F56E9B",
"V c #F5709C",
"C c #F7749E",
"Z c #F779A0",
"A c #F779A1",
"S c #F77AA1",
"D c #F77DA2",
"F c #F77DA3",
"G c #F87FA4",
"H c #F780A4",
"J c #F884A6",
"K c #F885A7",
"L c #F886A7",
"P c #F886A8",
"I c #F887A8",
"U c #F988A8",
"Y c #F989A9",
"T c #F98BAA",
"R c #F98DAB",
"E c #F98FAC",
"W c #F990AC",
"Q c #F991AD",
"! c #F992AD",
"~ c #F992AE",
"^ c #F993AE",
"/ c #F994AE",
"( c #F994AF",
") c #F995AF",
"_ c #F995B0",
"` c #F996B3",
"' c #FAAABF",
"] c #FAA8C1",
"[ c #FCCCD9",
/* pixels */
"                              ",
"                              ",
"                              ",
"                              ",
"                              ",
"                              ",
"   XXXooo@X@ooooo@@o@oooXoX   ",
"  w3,:&%%@@X@oooX@Xo@%%&>,5q  ",
"  CPANmcfpy8875578wypfvmNAPC  ",
"  F/!__!WWRTY`]]_YTRWWW___/D  ",
" jH_!_!_/////][[]!/!/_///!_Hj ",
" kK_!!!_W/W_/_____!_/WW_!/!Kk ",
" lK!/_!!_!!!/!/!_!!!/!!/_/!Kl ",
" rsfmAE!!!__!/!/!!_!!//RAmlpr ",
"   %&1pVE//!!_/!!_/!_EVu1&%   ",
"     .@,zI!_!!!_!_!/Iz,%o     ",
"      oo&sI/!/!_!!/Kp&oo      ",
"        X&dY_!!_!_Yf&o        ",
"         X:m!!!!/!m>o         ",
"          @3G__!_G3o          ",
"           &c!/!!v&           ",
"            7G_/H7            ",
"             n!En             ",
"             hbbh             ",
"                              ",
"                              ",
"                              ",
"                              ",
"                              ",
"                              "
};
