/* XPM */
static char *d4a814fbf3a341f193a40d136402e5a30kf6bv0oq1VH7owU[] = {
/* columns rows colors chars-per-pixel */
"30 30 140 2 ",
"   c None",
".  c black",
"X  c #010000",
"o  c #000001",
"O  c #010101",
"+  c #000202",
"@  c #000304",
"#  c #000305",
"$  c #000405",
"%  c #010506",
"&  c #000407",
"*  c #070606",
"=  c #000508",
"-  c #000608",
";  c #000A0E",
":  c #110F0E",
">  c #12100F",
",  c #000C11",
"<  c #021015",
"1  c #001219",
"2  c #01131A",
"3  c #00171F",
"4  c #201C1A",
"5  c #28221F",
"6  c #001821",
"7  c #001923",
"8  c #001A23",
"9  c #001924",
"0  c #07212A",
"q  c #0A252F",
"w  c #0D2730",
"e  c #002836",
"r  c #1E2D33",
"t  c #3B332F",
"y  c #282F31",
"u  c #27373B",
"i  c #3C3430",
"p  c #413834",
"a  c #423E3B",
"s  c #012F40",
"d  c #014F6C",
"f  c #015270",
"g  c #5F544D",
"h  c #625650",
"j  c #665A52",
"k  c #6C5D55",
"l  c #74655D",
"z  c #B79A26",
"x  c #B99B27",
"c  c #B3993D",
"v  c #C5A629",
"b  c #C8A829",
"n  c #C9A929",
"m  c #CDAC29",
"M  c #CDAD2A",
"N  c #CEAD2B",
"B  c #CFAE2A",
"V  c #D3B12A",
"C  c #D2B02B",
"Z  c #D5B32A",
"A  c #D7B52C",
"S  c #E6C12C",
"D  c #E7C22E",
"F  c #EDC72F",
"G  c #998460",
"H  c #928075",
"J  c #938177",
"K  c #9C897F",
"L  c #AD9575",
"P  c #C3A64F",
"I  c #E7C45E",
"U  c #E6C465",
"Y  c #01678D",
"T  c #0078A4",
"R  c #0193C9",
"E  c #0195CC",
"W  c #0098D0",
"Q  c #019AD3",
"!  c #019BD3",
"~  c #029ED8",
"^  c #01A1DC",
"/  c #01A5E1",
"(  c #00A5E2",
")  c #00A6E4",
"_  c #00A7E5",
"`  c #00AAE9",
"'  c #00ACEC",
"]  c #A18C80",
"[  c #A49084",
"{  c #AB9589",
"}  c #B09A8D",
"|  c #B49E91",
" . c #B69E91",
".. c #B79F92",
"X. c #BCA396",
"o. c #BDA496",
"O. c #BDA497",
"+. c #BFA598",
"@. c #BFA698",
"#. c #C0A79A",
"$. c #C1A89A",
"%. c #C2A89A",
"&. c #C2A89B",
"*. c #C6AC9D",
"=. c #C9AEA0",
"-. c #CEB3A4",
";. c #D0B3A3",
":. c #D4B8A9",
">. c #D5B8A9",
",. c #D6B9A8",
"<. c #D6BAAA",
"1. c #D6BAAB",
"2. c #D7BAAB",
"3. c #D7BBAB",
"4. c #D8BBAC",
"5. c #DBBEAE",
"6. c #DDBFAF",
"7. c #DCC0B0",
"8. c #DEC0B0",
"9. c #DEC0B1",
"0. c #DFC1B1",
"q. c #E2C3B3",
"w. c #E3C4B4",
"e. c #E4C5B5",
"r. c #E7C8B7",
"t. c #E7C8B8",
"y. c #E8C8B8",
"u. c #E8C9B8",
"i. c #E9C9B9",
"p. c #EACABA",
"a. c #EBCBBB",
"s. c #ECCCBB",
"d. c #ECCDBC",
"f. c #EDCDBC",
"g. c #EFCEBD",
"h. c #F0CFBE",
"j. c #F3D2C1",
"k. c #F4D2C1",
"l. c #F4D3C1",
"z. c #F4D3C2",
/* pixels */
"                                                            ",
"                                                            ",
"                        B A v                               ",
"                      x B C D z                             ",
"                        v Z F B                             ",
"                        n Z D m                             ",
"                        P U I c                             ",
"                        L 5.:.G                             ",
"                        h l j g         *.i.7.}             ",
"                        [ 3.|           O.X.i.s.O.          ",
"                        $.7.3.H             -.k.h...        ",
"              . . . ; > | a.i.k - $ . , 0 ] >.a.k.6.        ",
"            9 1 . . . . 4 p i : . $ 1 - w @.j.f.z.r.        ",
"            a w , . . . . . . . . . 6 9 u >.i.q.>.O.        ",
"          @.t.] r - . . . . . . . . # 1 y                   ",
"          3.j.f.J   . . . . . . . . . .                     ",
"          7.z.h.e.    . . . . . . . .                       ",
"          { 4.f.k.6.  . . . . . . . .                       ",
"                =.e.&.* . . . . . .                         ",
"                  $.i.i . . . . .                           ",
"                  $.;.5 . . . . .                           ",
"                      6 . . . .                             ",
"                    W T e 6 9                               ",
"                    ' ' E W R                               ",
"                    ` ~   / /                               ",
"                    )       )                               ",
"                    ^       !                               ",
"                . s f       Y d <                           ",
"                              # . .                         ",
"                                                            "
};
