/* XPM */
static char *result[] = {
/* columns rows colors chars-per-pixel */
"64 64 189 2 ",
"   c #000000",
".  c #00050A",
"X  c #0C0C0C",
"o  c #0B0806",
"O  c #000B14",
"+  c #00131A",
"@  c #001217",
"#  c #141414",
"$  c #1D1D1D",
"%  c #1C1715",
"&  c #211D1C",
"*  c #021B23",
"=  c #00202B",
"-  c #002D3C",
";  c #002834",
":  c #152D32",
">  c #252524",
",  c #2C2C2C",
"<  c #24292B",
"1  c #3B3A3A",
"2  c #393534",
"3  c #382F2B",
"4  c #4A3E39",
"5  c #4C403B",
"6  c #46403F",
"7  c #50443F",
"8  c #033443",
"9  c #003D52",
"0  c #163940",
"q  c #00475E",
"w  c #004156",
"e  c #2C4A51",
"r  c #004C65",
"t  c #00526C",
"y  c #0B596F",
"u  c #00607F",
"i  c #444443",
"p  c #4C4C4C",
"a  c #594C47",
"s  c #5D5D5D",
"d  c #434C50",
"f  c #6A5A54",
"g  c #715F59",
"h  c #78665F",
"j  c #646464",
"k  c #6A6A6A",
"l  c #796B66",
"z  c #7F706A",
"x  c #767676",
"c  c #87746A",
"v  c #927B73",
"b  c #847E7B",
"n  c #AC8A34",
"m  c #AB8936",
"M  c #B18E36",
"N  c #BA963A",
"B  c #B79338",
"V  c #C19A3A",
"C  c #CAA23D",
"Z  c #D3A93F",
"A  c #9B8857",
"S  c #B9984C",
"D  c #A88F50",
"F  c #8A837E",
"G  c #9C847A",
"H  c #96827C",
"J  c #958364",
"K  c #AE8F60",
"L  c #AB9362",
"P  c #B19E70",
"I  c #A1887E",
"U  c #B2A174",
"Y  c #D9AF42",
"T  c #D6AC45",
"R  c #DDB142",
"E  c #D4B154",
"W  c #C7A654",
"Q  c #EBBC46",
"!  c #EEBF48",
"~  c #E5B744",
"^  c #C0AB74",
"/  c #C4AD71",
"(  c #E3BA73",
")  c #EFC047",
"_  c #F2C249",
"`  c #F8C74B",
"'  c #FBC94C",
"]  c #F3C247",
"[  c #F2C554",
"{  c #F7C96C",
"}  c #ECC678",
"|  c #F2C670",
" . c #006987",
".. c #007898",
"X. c #267788",
"o. c #527C87",
"O. c #0084A8",
"+. c #008BB4",
"@. c #0094BC",
"#. c #009ABB",
"$. c #0092B2",
"%. c #1A9EBC",
"&. c #2B96AF",
"*. c #478B9C",
"=. c #519FB1",
"-. c #5296A5",
";. c #49A3BB",
":. c #72A4AE",
">. c #0095C4",
",. c #0099C5",
"<. c #009CCA",
"1. c #009DD1",
"2. c #00A2C1",
"3. c #00A2D3",
"4. c #00A6DC",
"5. c #34A6C2",
"6. c #00ABE4",
"7. c #00AFE8",
"8. c #00B0EA",
"9. c #6CB0C0",
"0. c #858484",
"q. c #8E8B89",
"w. c #948A84",
"e. c #9C8B85",
"r. c #948E8A",
"t. c #938682",
"y. c #9B918C",
"u. c #96918D",
"i. c #969696",
"p. c #9C9592",
"a. c #9D9D9D",
"s. c #A68E85",
"d. c #A4928B",
"f. c #AB978A",
"g. c #B4998E",
"h. c #B1968C",
"j. c #A29B96",
"k. c #A59E9A",
"l. c #A79A94",
"z. c #B39A92",
"x. c #BB9E92",
"c. c #B6A985",
"v. c #A9A39F",
"b. c #BDA195",
"n. c #BCA39A",
"m. c #B3A49D",
"M. c #88ABB4",
"N. c #98B2BA",
"B. c #ADA5A2",
"V. c #ABABAA",
"C. c #ADAAA6",
"Z. c #B3A9A5",
"A. c #B3ADAC",
"S. c #B6A7A2",
"D. c #B9B3AC",
"F. c #B2B2AE",
"G. c #BAB8B6",
"H. c #C4B58E",
"J. c #C1A297",
"K. c #C5A79C",
"L. c #C9AA9E",
"P. c #C7A89C",
"I. c #CBBC94",
"U. c #CCAEA1",
"Y. c #CCB1A6",
"T. c #D4B3A6",
"R. c #D5B5A9",
"E. c #D8B7AA",
"W. c #DCBAAC",
"Q. c #C1BEBC",
"!. c #E1BFAF",
"~. c #E2BFB1",
"^. c #F4D78E",
"/. c #C6C0BE",
"(. c #E5C1B3",
"). c #E9C5B7",
"_. c #ECC7B8",
"`. c #EFCABB",
"'. c #F3CDBE",
"]. c #86B9C6",
"[. c #90B8C0",
"{. c #9DC3C8",
"}. c #C1C0C0",
"|. c #D1CECE",
" X c #D4D4D0",
".X c #F5CEC0",
"XX c #F6D0C1",
"oX c #F9D2C4",
"OX c None",
/* pixels */
"OXOXOXOXOXOXOXOXOXOXOXOXOXOXOXOXOXOXOXOXOXOXOXOXOXOXA OXOXOXOXOXOXOXOXOXOXOXOXOXOXOXOXOXOXOXOXOXOXOXOXOXOXOXOXOXOXOXOXOXOXOXOXOX",
"OXOXOXOXOXOXOXOXOXOXOXOXOXOXOXOXOXOXOXOXOXOXOXOX} M ) [ OXOXOXOXOXOXOXOXOXOXOXOXOXOXOXOXOXOXOXOXOXOXOXOXOXOXOXOXOXOXOXOXOXOXOXOX",
"OXOXOXOXOXOXOXOXOXOXOXOXOXOXOXOXOXOXOXOXOXOXOXE R V ' _ N H.OXOXOXOXOXOXOXOXOXOXOXOXOXOXOXOXOXOXOXOXOXOXOXOXOXOXOXOXOXOXOXOXOXOX",
"OXOXOXOXOXOXOXOXOXOXOXOXOXOXOXOXOXOXOXOXOXOXU ] C C ' C n Q ^.OXOXOXOXOXOXOXOXOXOXOXOXOXOXOXOXOXOXOXOXOXOXOXOXOXOXOXOXOXOXOXOXOX",
"OXOXOXOXOXOXOXOXOXOXOXOXOXOXOXOXOXOXOXOXOXOXD ` N C ' B Z ' ' H.OXOXOXOXOXOXOXOXOXOXOXOXOXOXOXOXOXOXOXOXOXOXOXOXOXOXOXOXOXOXOXOX",
"OXOXOXOXOXOXOXOXOXOXOXOXOXOXOXOXOXOXOXOXOXOXL ` N C ' n ! ' ' M l.OXOXOXOXOXOXOXOXOXOXOXOXOXOXOXOXOXOXOXOXOXOXOXOXOXOXOXOXOXOXOX",
"OXOXOXOXOXOXOXOXOXOXOXOXOXOXOXOXOXOXOXOXOXOXc.Q C B ' n ) ` ' Z M U OXOXOXOXOXOXOXOXOXOXOXOXOXOXOXOXOXOXOXOXOXOXOXOXOXOXOXOXOXOX",
"OXOXOXOXOXOXOXOXOXOXOXOXOXOXOXOXOXOXOXOXOXOXOXY Z n ' B _ ' ' C Z E OXOXOXOXOXOXOXOXOXOXOXOXOXOXOXOXOXOXOXOXOXOXOXOXOXOXOXOXOXOX",
"OXOXOXOXOXOXOXOXOXOXOXOXOXOXOXOXOXOXOXOXOXOXOXW ! n ] N ! ' ' V ~ W OXOXOXOXOXOXOXOXOXOXOXOXOXOXOXOXOXOXOXOXOXOXOXOXOXOXOXOXOXOX",
"OXOXOXOXOXOXOXOXOXOXOXOXOXOXOXOXOXOXOXOXOXOXOXU ! B Q C Q ' ] N ! I.OXOXOXOXOXOXOXOXOXOXOXOXOXOXOXOXOXOXOXOXOXOXOXOXOXOXOXOXOXOX",
"OXOXOXOXOXOXOXOXOXOXOXOXOXOXOXOXOXOXOXOXOXOXOXOXT Y Z R ~ ' Z C E OXOXOXOXOXOXOXOXOXOXOXOXOXOXOXOXOXOXOXOXOXOXOXOXOXOXOXOXOXOXOX",
"OXOXOXOXOXOXOXOXOXOXOXOXOXOXOXOXOXOXOXOXOXOXOXOXU ! C Q ~ ' C Z H.OXOXOXOXOXOXOXOXOXOXOXOXOXOXOXOXOXOXOXOXOXOXOXOXOXOXOXOXOXOXOX",
"OXOXOXOXOXOXOXOXOXOXOXOXOXOXOXOXOXOXOXOXOXOXOXOXA ( } | { { ( S D.OXOXOXOXOXOXOXOXOXOXOXOXOXOXOXOXOXOXOXOXOXOXOXOXOXOXOXOXOXOXOX",
"OXOXOXOXOXOXOXOXOXOXOXOXOXOXOXOXOXOXOXOXOXOXOXOXD (.oX'.XXXX'.K U OXOXOXOXOXOXOXOXOXOXOXOXOXOXOXOXOXOXOXOXOXOXOXOXOXOXOXOXOXOXOX",
"OXOXOXOXOXOXOXOXOXOXOXOXOXOXOXOXOXOXOXOXOXOXOXOXJ ~.oXoXoXoXXXL c.OXOXOXOXOXOXOXOXOXOXOXOXOXOXOXOXOXOXOXOXOXOXOXOXOXOXOXOXOXOXOX",
"OXOXOXOXOXOXOXOXOXOXOXOXOXOXOXOXOXOXOXOXOXOXOXOXF s.g.L.U.x.J.v  XOXOXOXOXOXOXOXOXOXOXOXOXm.P.b.j.OXOXOXOXOXOXOXOXOXOXOXOXOXOXOX",
"OXOXOXOXOXOXOXOXOXOXOXOXOXOXOXOXOXOXOXOXOXOXOXOXz o   5 f     a Q.OXOXOXOXOXOXOXOXOXOXS.T.'.oXoX(.z.A.OXOXOXOXOXOXOXOXOXOXOXOXOX",
"OXOXOXOXOXOXOXOXOXOXOXOXOXOXOXOXOXOXOXOXOXOXOXOXH h a G G 4 5 c Q.OXOXOXOXOXOXOXOXOXOXT..XoXoX'.'.oXE.e.V.OXOXOXOXOXOXOXOXOXOXOX",
"OXOXOXOXOXOXOXOXOXOXOXOXOXOXOXOXOXOXOXOXOXOXOXOXp.P.XXU.x.(.n.p.OXOXOXOXOXOXOXOXOXOXOXY.~.W.).'.'.oXoX'.h.r.OXOXOXOXOXOXOXOXOXOX",
"OXOXOXOXOXOXOXOXOXOXOXOXOXOXOXOXOXOXOXOXOXOXOXOXk.b.XXXXT.v G B.OXOXOXOXOXOXOXOXOXOXOXB.n.G 0.z.'.'.oX'.oXP.t.OXOXOXOXOXOXOXOXOX",
"OXOXOXOXOXOXOXOXOXOXOXOXOXOXOXOXOXOXOXOXOXOXOXOXn.z.`.XX'.).x.m.OXOXOXOXOXOXOXOXOXOXOXOXOXOXOXD._.oXXXXXXXoXL.r.OXOXOXOXOXOXOXOX",
"OXOXOXOXOXOXOXOXOXOXOXOXOXOXOXOXOXOXOXOXOXOXOXQ.U.T.b.P.L.J.L.n.OXOXOXOXOXOXi.0.OXOXOXOXOXOXOX|.T.oXXXXXXXXXoXz.F.OXOXOXOXOXOXOX",
"OXOXOXOXOXOXOXOXOXOXOXOXOXk $ > j OXOXOXOXu.s 4 W.XX'._.).).oXg.1 k V.OXi.<       > y > > 0./.A.s.XXXXXXXXXXXX`.w.OXOXOXOXOXOXOX",
"OXOXOXOXOXOXOXOXOXOXOXOXs         . , e *     4 '.XXXXXXXXXXoXL.o   + -             8 ;   g ~.~.g.E.XXXXXXXXXXXXb.OXOXOXOXOXOXOX",
"OXOXOXOXOXOXOXOXOXOXOXk                 .     3 U.'.oXoXoXoX'.h.o                   + q   l oXoX_.b.).XXXXXXXXXXW.r.OXOXOXOXOXOX",
"OXOXOXOXOXOXOXOXOX1 o.-                         % 5 h v v h 5 #           . +       . r   c oXXXXX).E.'.XXXXXXXX_.w.OXOXOXOXOXOX",
"OXOXOXOXOXOXOXOXOX  + u *                                                   - *       r   I oXXXXXXX'.'.XXXXXXXX'.y.OXOXOXOXOXOX",
"OXOXOXOXOXOXOXOXa.    + t +                                                 . r O   . 9 X K.oXXXXXXXXXXXXXXXXXoX).l.OXOXOXOXOXOX",
"OXOXOXOXOXOXOXOXF.2 &   O w +                                                 - q   O 8 3 ).oXXXXXoXoXoXXX'.E.x.e.OXOXOXOXOXOXOX",
"OXOXOXOXOXOXOXOXB.OXOXOX% . 8 +                                                 r * O = f _.).(.W.R.K.h.e.t.r.A.OXOXOXOXOXOXOXOX",
"OXOXOXOXOXOXOX Xx.OXOXOXOX5 . - + > ,                                           O 0 e * b j.v.j.k.V.F.G.OXOXOXOXOXOXOXOXOXOXOXOX",
"OXOXOXOXOXOXOXv.OXOXOXOXOXOXg . - OXOX&                                           4 OXOXOXOXOXOXOXOXOXOXOXOXOXOXOXOXOXOXOXOXOXOX",
"OXOXOXOXOXOXOXd.OXOXOXOXOXOXOXf 0.OXOXOX                                          > OXOXOXOXOXOXOXOXOXOXOXOXOXOXOXOXOXOXOXOXOXOX",
"OXOXOXOXOXOX/.n.OXOXOXOXOXOXOXw.OXOXOXOX,                                         i OXOXOXOXOXOXOXOXOXOXOXOXOXOXOXOXOXOXOXOXOXOX",
"OXOXOXOXOXOXv.E.OXOXOXOXOXOXOXOXy.OXOXOXOX                                        OXOXOXOXOXOXOXOXOXOXOXOXOXOXOXOXOXOXOXOXOXOXOX",
"OXOXOXOXOXOXj.OXOXOXOXOXOXOXOXOXOXy.OXOXOXX                                     2 OXOXOXOXOXOXOXOXOXOXOXOXOXOXOXOXOXOXOXOXOXOXOX",
"OXOXOXOXOXOXj.T.OXOXOXOXOXOXOXOXOXOXk.OXOX1                                     OXOXOXOXOXOXOXOXOXOXOXOXOXOXOXOXOXOXOXOXOXOXOXOX",
"OXOXOXOXOXOXOXw.h.~.OXOXOXOXOXOXOXOXz.G.OXk                                   i OXOXOXOXOXOXOXOXOXOXOXOXOXOXOXOXOXOXOXOXOXOXOXOX",
"OXOXOXOXOXOXOXOXOXp.z.W.OXOXOXOXOXOXOXe.OXi.                                o OXOXOXOXOXOXOXOXOXOXOXOXOXOXOXOXOXOXOXOXOXOXOXOXOX",
"OXOXOXOXOXOXOXOXOXOXOXk.f.K.!.OXOXOXOXR.j.OX                                j OXOXOXOXOXOXOXOXOXOXOXOXOXOXOXOXOXOXOXOXOXOXOXOXOX",
"OXOXOXOXOXOXOXOXOXOXOXOXOXOXZ.l.n.R.XXXXz.OX#                             , OXOXOXOXOXOXOXOXOXOXOXOXOXOXOXOXOXOXOXOXOXOXOXOXOXOX",
"OXOXOXOXOXOXOXOXOXOXOXOXOXOXOXOXOXd.'.oX(.z #                           o OXOXOXOXOXOXOXOXOXOXOXOXOXOXOXOXOXOXOXOXOXOXOXOXOXOXOX",
"OXOXOXOXOXOXOXOXOXOXOXOXOXOXOXOXOXz.oXXXoXs.                            x OXOXOXOXOXOXOXOXOXOXOXOXOXOXOXOXOXOXOXOXOXOXOXOXOXOXOX",
"OXOXOXOXOXOXOXOXOXOXOXOXOXOXOXOXB.s._.XXoXR.&                         i OXOXOXOXOXOXOXOXOXOXOXOXOXOXOXOXOXOXOXOXOXOXOXOXOXOXOXOX",
"OXOXOXOXOXOXOXOXOXOXOXOXOXOXOXOXD.E.(._.T.e.#                       > OXOXOXOXOXOXOXOXOXOXOXOXOXOXOXOXOXOXOXOXOXOXOXOXOXOXOXOXOX",
"OXOXOXOXOXOXOXOXOXOXOXOXOXOXOXOXOXS.Y.S.Q.OX>                     # OXOXOXOXOXOXOXOXOXOXOXOXOXOXOXOXOXOXOXOXOXOXOXOXOXOXOXOXOXOX",
"OXOXOXOXOXOXOXOXOXOXOXOXOXOXOXOXOXOXOXOXOXOX#                   . OXOXOXOXOXOXOXOXOXOXOXOXOXOXOXOXOXOXOXOXOXOXOXOXOXOXOXOXOXOXOX",
"OXOXOXOXOXOXOXOXOXOXOXOXOXOXOXOXOXOXOXOX{....                   OXOXOXOXOXOXOXOXOXOXOXOXOXOXOXOXOXOXOXOXOXOXOXOXOXOXOXOXOXOXOXOX",
"OXOXOXOXOXOXOXOXOXOXOXOXOXOXOXOXOXOXOXM.,.<.;                 x OXOXOXOXOXOXOXOXOXOXOXOXOXOXOXOXOXOXOXOXOXOXOXOXOXOXOXOXOXOXOXOX",
"OXOXOXOXOXOXOXOXOXOXOXOXOXOXOXOXOXOXM.>.7.7.>.9 .         . j OXOXOXOXOXOXOXOXOXOXOXOXOXOXOXOXOXOXOXOXOXOXOXOXOXOXOXOXOXOXOXOXOX",
"OXOXOXOXOXOXOXOXOXOXOXOXOXOXOXOXOXOX$.7.7.7.8.6.+. .r t  ...N.OXOXOXOXOXOXOXOXOXOXOXOXOXOXOXOXOXOXOXOXOXOXOXOXOXOXOXOXOXOXOXOXOX",
"OXOXOXOXOXOXOXOXOXOXOXOXOXOXOXOXOXOX,.8.7.7.7.7.7.8.8.8.8.4.:.OXOXOXOXOXOXOXOXOXOXOXOXOXOXOXOXOXOXOXOXOXOXOXOXOXOXOXOXOXOXOXOXOX",
"OXOXOXOXOXOXOXOXOXOXOXOXOXOXOXOXOXOX,.8.7.7.7.4.#.+.6.7.7.6.&.OXOXOXOXOXOXOXOXOXOXOXOXOXOXOXOXOXOXOXOXOXOXOXOXOXOXOXOXOXOXOXOXOX",
"OXOXOXOXOXOXOXOXOXOXOXOXOXOXOXOXOXOX,.8.7.7.4.].OXOX3.7.7.7.@.OXOXOXOXOXOXOXOXOXOXOXOXOXOXOXOXOXOXOXOXOXOXOXOXOXOXOXOXOXOXOXOXOX",
"OXOXOXOXOXOXOXOXOXOXOXOXOXOXOXOXOXOX,.8.7.6.2.OXOXOX5.6.7.8.,.OXOXOXOXOXOXOXOXOXOXOXOXOXOXOXOXOXOXOXOXOXOXOXOXOXOXOXOXOXOXOXOXOX",
"OXOXOXOXOXOXOXOXOXOXOXOXOXOXOXOXOXOX2.7.7.4.OXOXOXOXOX3.7.8.3.OXOXOXOXOXOXOXOXOXOXOXOXOXOXOXOXOXOXOXOXOXOXOXOXOXOXOXOXOXOXOXOXOX",
"OXOXOXOXOXOXOXOXOXOXOXOXOXOXOXOXOXOX3.8.8.<.OXOXOXOXOX%.7.7.1.[.OXOXOXOXOXOXOXOXOXOXOXOXOXOXOXOXOXOXOXOXOXOXOXOXOXOXOXOXOXOXOXOX",
"OXOXOXOXOXOXOXOXOXOXOXOXOXOXOXOXOXOX,.8.7.#.OXOXOXOXOX[.1.7.6.9.OXOXOXOXOXOXOXOXOXOXOXOXOXOXOXOXOXOXOXOXOXOXOXOXOXOXOXOXOXOXOXOX",
"OXOXOXOXOXOXOXOXOXOXOXOXOXOXOXOXOXOX<.7.6.=.OXOXOXOXOXOX>.8.6.;.OXOXOXOXOXOXOXOXOXOXOXOXOXOXOXOXOXOXOXOXOXOXOXOXOXOXOXOXOXOXOXOX",
"OXOXOXOXOXOXOXOXOXOXOXOXOXOXOXOXOXN.<.8.4.*.OXOXOXOXOXOX-.<.1.&.OXOXOXOXOXOXOXOXOXOXOXOXOXOXOXOXOXOXOXOXOXOXOXOXOXOXOXOXOXOXOXOX",
"OXOXOXOXOXOXOXOXOXOXOXOXOXOXj 0.OXX.O.+.@.O.OXOXOXOXOX:.$.<.>.@.@.OXOXOXOXOXOXOXOXOXOXOXOXOXOXOXOXOXOXOXOXOXOXOXOXOXOXOXOXOXOXOX",
"OXOXOXOXOXOXOXOXOXOXOXOX0.          .   p OXOXOXOXOXOXOX&. .r r 9 : > # s OXOXOXOXOXOXOXOXOXOXOXOXOXOXOXOXOXOXOXOXOXOXOXOXOXOXOX",
"OXOXOXOXOXOXOXOXOXOXOXOX1 $ $ $ $ p OX> OXOXOXOXOXOXOXOXOXi               OXOXOXOXOXOXOXOXOXOXOXOXOXOXOXOXOXOXOXOXOXOXOXOXOXOXOX",
"OXOXOXOXOXOXOXOXOXOXOXOXOXOXOXOXOXOXOXOXOXOXOXOXOXOXOXOXOXOXOXOXOXOXOXOXOXOXOXOXOXOXOXOXOXOXOXOXOXOXOXOXOXOXOXOXOXOXOXOXOXOXOXOX"
};
