/* XPM */
static char *_77aabea9a6841aaec7d21d8e020a75cotPbdj3Iw7TNEkLk[] = {
/* columns rows colors chars-per-pixel */
"64 64 147 2 ",
"   c #734E3F",
".  c #794F3F",
"X  c #7C503F",
"o  c #674D42",
"O  c #6B4D40",
"+  c #685046",
"@  c #6D544A",
"#  c #745345",
"$  c #7E5442",
"%  c #74574B",
"&  c #7C5748",
"*  c #76594E",
"=  c #7E5A4A",
"-  c #7E5E51",
";  c #86523D",
":  c #88533E",
">  c #93553B",
",  c #9E573A",
"<  c #97583E",
"1  c #9D593D",
"2  c #A45737",
"3  c #AA5937",
"4  c #A5593A",
"5  c #AD5C3B",
"6  c #B25E3C",
"7  c #B6603D",
"8  c #B9623E",
"9  c #835542",
"0  c #8A5642",
"q  c #855947",
"w  c #8C5A45",
"e  c #855B4A",
"r  c #8A5E4C",
"t  c #955A42",
"y  c #9D5D43",
"u  c #905D48",
"i  c #A65E41",
"p  c #8D604D",
"a  c #94624D",
"s  c #99634C",
"d  c #866152",
"f  c #8E6351",
"g  c #9D6D59",
"h  c #A56043",
"j  c #AB6244",
"k  c #A4644A",
"l  c #AA664A",
"z  c #B36747",
"x  c #BA6542",
"c  c #B26748",
"v  c #B4694A",
"b  c #BA6E4E",
"n  c #A26952",
"m  c #BE7151",
"M  c #BD7A5E",
"N  c #997262",
"B  c #9E7C6E",
"V  c #A77966",
"C  c #AF7E6A",
"Z  c #B77C63",
"A  c #C07353",
"S  c #C07758",
"D  c #A8806F",
"F  c #BE8066",
"G  c #C88164",
"H  c #CD8E73",
"J  c #CDA493",
"K  c #C8A89B",
"L  c #D2A795",
"P  c #D3A897",
"I  c #D6AC9B",
"U  c #D9AE9C",
"Y  c #D9B09F",
"T  c #C8ADA2",
"R  c #CBB5AC",
"E  c #D6B3A5",
"W  c #DEB4A1",
"Q  c #D3B9AF",
"!  c #DCBAAC",
"~  c #CDBBB3",
"^  c #D6BCB2",
"/  c #D8BFB4",
"(  c #E1B5A3",
")  c #E3BCAB",
"_  c #DAC1B6",
"`  c #D6C3BC",
"'  c #DDCEC8",
"]  c #DDD0CB",
"[  c #E2D3CC",
"{  c #E3D6D1",
"}  c #E7DAD5",
"|  c #E5D9D4",
" . c #E5D9D4",
".. c #E8DBD5",
"X. c #E8DCD7",
"o. c #E8DBD6",
"O. c #EADDD8",
"+. c #EBDDD8",
"@. c #EBDED9",
"#. c #EADFDA",
"$. c #EBDFDA",
"%. c #EADDD8",
"&. c #EDE0DB",
"*. c #EBE1DD",
"=. c #EEE2DD",
"-. c #EDE3DE",
";. c #ECE2DE",
":. c #E9E4E2",
">. c #EAE4E2",
",. c #EBE5E2",
"<. c gray93",
"1. c #EEEEEE",
"2. c #EFEFEF",
"3. c #EFEFEE",
"4. c #F0E5E1",
"5. c #F1EAE7",
"6. c #F2EFEF",
"7. c #F2F0EF",
"8. c gray94",
"9. c #F1F1F1",
"0. c #F2F0F0",
"q. c #F2F1F0",
"w. c #F2F1F1",
"e. c #F2F2F1",
"r. c #F1F1F2",
"t. c #F1F2F2",
"y. c #F1F2F3",
"u. c gray95",
"i. c #F2F2F3",
"p. c #F2F3F3",
"a. c #F3F3F3",
"s. c #F2F3F4",
"d. c #F3F3F4",
"f. c #F3F4F4",
"g. c #F4F4F4",
"h. c #F4F5F5",
"j. c gray96",
"k. c #F4F5F6",
"l. c #F5F5F6",
"z. c #F5F6F6",
"x. c #F5F6F7",
"c. c #F6F6F6",
"v. c #F6F7F7",
"b. c gray97",
"n. c #F3F3F3",
"m. c #F8F8F8",
"M. c #F8F8F8",
/* pixels */
"m.1.c.1.c.1.c.8.c.8.c.8.8.c.8.c.8.c.8.z.1.z.<.z.1.z.1.M.1.c.1.c.8.c.8.c.c.8.c.8.c.1.c.1.c.1.m.1.m.1.c.1.c.8.c.2.c.8.c.8.8.c.8.m.",
"1.c.1.c.1.c.8.c.8.c.8.c.c.8.c.8.c.8.p.8.c.7.c.8.c.8.c.8.c.1.c.8.y.7.8.8.8.8.8.c.8.c.8.c.1.c.1.c.1.c.8.c.1.c.8.c.8.c.8.c.c.8.c.1.",
"m.1.c.8.c.8.c.8.c.8.c.8.8.c.8.c.8.c.8.c.8.c.8.c.1.c.1.c.8.c.8.f.8.c.8.c.c.8.c.8.c.1.c.8.c.8.c.8.c.8.c.1.c.2.c.8.g.8.8.8.8.8.8.c.",
"1.c.1.c.1.c.8.c.8.8.8.c.c.8.8.8.p.8.c.8.c.1.c.1.c.8.c.7.c.1.c.8.c.8.8.f.8.8.8.c.8.c.1.c.8.c.1.c.1.c.1.c.2.c.1.c.8.c.8.c.c.8.c.8.",
"c.8.c.8.c.1.c.8.c.8.c.8.8.c.8.c.8.c.8.f.8.g.8.z.8.c.8.f.8.c.8.c.8.c.c.8.c.8.c.8.c.8.c.1.c.8.c.1.c.8.c.2.c.2.c.8.c.c.c.8.8.c.8.c.",
"1.c.1.c.8.c.8.c.8.c.8.c.c.8.8.8.f.7.c.8.c.8.c.8.p.8.c.7.c.8.f.8.c.8.8.8.8.c.8.c.8.c.8.c.1.c.8.c.8.c.2.c.2.c.8.g.8.8.8.c.c.8.8.8.",
"c.8.c.1.c.8.8.8.c.8.c.8.8.c.8.c.8.c.p.f.8.g.7.z.8.c.8.c.1.c.8.f.8.c.8.c.c.8.8.8.8.8.c.1.c.8.c.8.c.2.c.1.c.8.g.8.8.8.c.8.8.c.8.b.",
"8.c.8.c.8.c.8.c.8.8.8.8.c.8.c.8.c.8.p.7.c.8.z.7.c.8.p.8.f.8.c.7.8.8.c.8.8.c.8.c.8.c.8.c.8.f.8.c.2.c.8.c.8.c.8.c.8.c.8.8.c.8.c.8.",
"c.8.c.8.a.7.a.a.c.8.g.8.a.g.8.c.p.z.7.p.p.p.7.g.e.z.7.z.e.z.e.e.c.c.8.c.g.8.c.8.c.8.c.8.c.8.8.8.g.8.c.8.c.8.c.8.c.8.c.8.8.c.8.c.",
"8.g.8.g.a.a.a.a.8.c.a.8.g.8.g.8.p.p.p.p.g.p.g.p.z.t.z.e.e.e.e.e.8.8.c.8.f.8.8.g.8.g.8.c.8.c.8.c.8.c.8.g.8.g.8.c.8.c.8.c.c.8.c.8.",
"c.a.a.8.a.8.a.a.8.7.7.7.7.7.7.7.7.7.8.e.7.7.7.7.3.7.e.7.7.e.f.e.7.7.7.7.6.6.6.6.7.7.7.7.7.7.6.6.7.7.7.6.8.a.g.8.c.c.8.8.8.c.8.8.",
"8.a.a.a.a.a.a.[ ( ( ( ( ( ( ( ( W W W W Y ( ( ( Y ( W ( W W E ( W ( W ( ( ( ( ( ( W ( W ( W ( W ( W ( W ) 5.f.8.8.8.8.c.c.8.8.c.",
"a.a.8.a.8.g.c.! M G G G G G G G G G G G G G G G G G G G G F D G G G G G G G G G G G G G G G G G G G G G H ,.g.c.8.c.8.8.8.8.c.8.",
"g.a.a.a.c.8.c.U 8 8 8 8 8 8 8 8 8 8 8 8 8 8 8 7 8 8 8 8 8 j f 8 8 8 8 8 8 8 8 8 8 8 8 8 8 8 8 x 8 8 8 8 m #.f.8.c.8.c.c.c.8.8.c.",
"8.g.8.g.8.g.a.U 8 8 8 8 8 8 7 8 7 8 8 7 8 8 7 7 7 7 8 8 7 j d 8 8 8 8 8 7 x 7 8 8 8 7 8 7 8 8 7 8 8 8 8 m &.f.8.8.c.8.8.8.8.c.8.",
"c.8.c.8.g.7.c.U 6 6 7 6 6 7 6 6 7 6 7 7 6 7 7 7 7 7 7 7 7 1 p 6 6 6 6 7 6 7 6 6 6 7 7 6 7 6 6 7 6 6 6 6 b } c.c.8.8.c.8.c.c.8.c.",
"7.c.8.c.8.8.f.L 5 7 5 7 5 5 7 5 5 6 6 6 6 6 5 6 6 6 5 6 6 1 ; 6 6 6 6 5 6 5 6 6 5 5 7 5 6 6 5 6 6 6 6 5 v #.y.c.8.y.8.g.8.8.c.8.",
"c.7.c.8.c.8.c.J 3 5 5 5 5 5 5 5 5 5 5 5 5 5 5 5 5 3 5 5 5 1 X 5 5 5 5 5 5 5 5 5 5 5 5 6 5 5 5 5 5 5 5 5 c { v.8.c.y.c.8.g.g.8.c.",
"1.c.8.c.8.c.f.J 2 3 4 2 4 4 3 4 4 4 4 4 4 4 4 4 4 4 4 4 4 >   4 4 4 4 3 4 4 2 4 4 4 4 4 2 4 4 4 3 2 4 2 l } 8.c.8.g.8.g.g.g.g.8.",
"c.8.c.1.f.8.f.~ & & & & & & & & & & # # & & & & & & = = = & @ & & & & & & & & & & # # & & & & & & & & & B :.c.8.c.8.c.8.8.8.8.c.",
"1.c.1.c.8.c.8.E x z z z z z z z c c d l z z z z z z z z z z z z z z z z z z z z v f s v z z z z z z z z M =.8.c.8.c.8.g.c.8.c.8.",
"v.2.c.2.c.8.v.U 7 7 7 8 8 8 8 8 8 8 p j 8 8 8 8 8 8 8 8 8 8 8 7 8 8 8 8 8 8 8 8 8 a k 8 8 8 8 8 8 8 8 8 m  .v.8.g.8.c.8.8.g.8.c.",
"1.c.2.c.8.c.y.P 7 7 7 7 7 7 7 7 7 7 q j 7 7 8 8 7 7 7 7 7 7 7 7 8 7 7 7 7 7 7 7 8 w i 7 7 7 7 7 7 8 7 7 b =.8.c.8.c.8.c.c.8.c.1.",
"m.1.c.2.c.8.v.P 5 7 7 5 6 7 6 6 5 7 q 4 6 6 6 6 6 6 7 6 6 7 7 6 6 6 6 6 6 6 7 6 7 0 < 7 6 6 6 7 6 6 6 6 b [ v.8.g.8.c.8.8.g.8.c.",
"1.c.2.c.2.c.8.J 5 5 5 6 5 5 6 6 6 5 $ 1 6 5 5 6 5 5 6 5 5 6 5 5 5 5 5 6 5 5 6 5 5 ; < 5 6 5 6 5 5 5 6 5 v #.y.v.8.c.8.c.8.8.c.2.",
"v.2.c.2.c.8.v.J 3 5 5 5 5 5 5 5 5 5 X 1 3 5 5 5 5 5 5 5 5 5 5 5 5 5 5 5 5 5 5 5 5 ; > 5 5 5 5 5 5 5 5 5 v [ v.2.g.8.g.8.8.c.8.c.",
"1.c.2.c.8.f.y.K > > > > > > > > > >   ; > > > > > > > > > > > > > > > > > > > > >   ; > > > > > > > > > n #.8.g.8.g.8.c.g.g.c.2.",
"b.2.c.8.c.8.v.^ p p p p p p p a p p d p p p p p p p p p p d @ p p p p p p p p p p p p p p p p p p p f u B :.c.8.c.8.g.8.8.8.8.c.",
"1.c.2.c.2.c.y.I 8 x 8 x x x 8 8 8 x 8 x x 8 x x 8 x x 8 8 l p 8 8 x x 8 8 x 8 x x 8 x x x 8 x 8 x x 8 x A =.8.c.8.c.8.c.c.8.c.8.",
"c.8.c.2.c.2.v.U 8 8 8 8 8 8 8 8 8 8 8 7 8 8 8 8 8 8 8 8 8 l p 7 8 8 8 8 8 8 8 8 8 7 8 8 8 8 8 8 8 8 8 8 m } c.8.c.8.g.8.8.g.8.c.",
"2.c.2.c.2.c.8.P 6 6 6 6 8 6 8 6 7 7 7 7 8 7 7 7 7 7 7 7 7 5 d 7 8 7 7 7 7 7 8 7 7 7 7 7 8 8 6 7 6 8 6 6 b #.8.c.8.8.8.c.g.g.g.8.",
"c.2.c.8.g.8.c.L 6 6 6 6 6 6 6 6 5 6 6 6 6 6 5 6 6 6 5 6 6 1 X 6 5 6 5 6 5 6 6 7 6 6 5 6 5 6 6 6 6 6 6 6 v | v.8.c.8.c.8.8.8.8.c.",
"1.c.8.c.8.c.8.J 5 6 5 5 5 5 5 5 5 5 5 4 5 6 5 5 5 5 5 5 5 , $ 5 5 5 6 5 5 5 5 6 5 5 5 5 5 5 5 5 5 5 5 5 c ..f.c.8.8.c.8.c.8.8.8.",
"c.8.c.8.y.8.c.J 4 4 5 4 5 4 3 3 5 5 5 5 5 4 5 4 3 5 5 i 3 , # 5 5 4 4 5 4 5 5 4 4 5 5 3 4 5 3 5 5 4 3 5 l { c.8.8.c.8.8.8.c.8.c.",
"8.8.8.c.8.c.c.R 9 9 $ $ 9 $ 9 $ $ $ # $ $ $ 9 $ $ $ 9 $ 9 # + 9 $ $ $ $ $ $ $ $ 9 $ X ; $ $ $ $ $ $ & $ N :.8.c.8.c.8.c.8.8.c.8.",
"c.8.y.8.c.8.f.! j j l l l l l l l l d s l j j v l l l l l i c c l l l l l l l l l d a j l l l l l l l j Z =.c.p.c.8.c.8.c.c.8.c.",
"a.8.a.8.a.8.c.U x x 8 8 x 8 8 8 x 6 u c 8 8 8 8 x 6 x 6 8 8 8 8 8 8 8 8 8 8 8 8 8 a k 8 8 8 8 8 8 8 8 8 A ..c.8.c.8.8.c.8.8.c.8.",
"8.c.8.c.6.a.a.P 6 6 6 8 6 8 8 8 6 x e i 8 6 8 8 x 6 8 8 6 x 8 6 8 7 8 7 8 7 8 8 8 u s 8 8 7 7 7 7 7 7 8 m ..8.c.8.c.8.8.c.8.c.8.",
"a.8.c.8.a.a.j.L 6 6 6 6 6 6 6 6 6 6 q i 6 6 6 6 6 6 6 6 6 6 5 x 6 6 6 7 7 6 6 7 7 9 < 7 7 6 7 7 7 7 7 6 b  .c.8.c.8.c.8.c.8.8.c.",
"8.c.8.c.a.a.a.J 6 6 6 6 6 5 6 6 6 5 $ 4 3 6 6 6 6 6 6 6 5 5 5 5 5 6 6 5 5 6 5 5 7 9 > 6 5 6 5 6 5 5 5 5 v ..8.p.8.c.8.c.8.8.c.8.",
"c.6.f.8.c.8.c.J 4 5 6 5 5 5 5 5 5 5 $ , 5 5 5 5 3 5 5 i 5 5 3 5 5 5 5 5 5 5 5 5 5 ; > 5 5 5 5 5 5 5 5 5 c { c.8.8.c.c.8.c.c.8.c.",
"1.c.1.c.8.f.f.J , , , , , , , , , , O > 2 , , , , y 2 , , , , y 1 , , , , , , , , X ; , , , , , , , , , n #.8.c.8.8.8.8.8.8.c.8.",
"c.8.c.8.c.1.x.~ = = $ ; q & e & = = * & & e = = e & e q e * @ e = = = = = = = = = & = = & e = = e = & & V :.c.8.c.8.c.c.8.8.8.c.",
"1.c.1.c.8.c.8.E x x x A z x z x x x x v z x v x c x x x x i f x x v x x v x x x x v x x x v x x x z x x M ,.8.c.8.c.8.8.c.8.c.8.",
"v.2.c.8.c.8.c.U 6 8 8 8 8 8 6 6 8 8 8 6 6 x 6 8 6 8 8 8 x i w x 8 7 8 8 8 7 7 8 8 8 7 8 8 8 7 8 8 8 8 8 m } c.8.c.8.c.8.8.c.8.c.",
"1.c.2.c.1.c.8.P 6 6 6 8 8 6 8 6 8 6 6 6 6 8 6 8 6 x 6 8 x i q 6 7 7 7 7 7 7 7 7 7 7 7 7 7 7 7 7 7 7 8 6 b &.8.f.8.c.8.c.c.8.c.8.",
"m.1.c.2.c.8.v.P 6 6 6 6 6 6 6 6 6 6 6 6 6 6 6 6 5 6 x 5 6 i 9 5 7 6 6 6 6 7 6 6 6 6 6 7 5 7 5 7 6 6 6 6 v  .c.1.c.8.8.8.8.c.8.c.",
"1.c.2.c.8.c.8.J 3 6 3 6 6 6 6 6 6 6 5 5 6 6 6 6 5 5 3 5 5 2 9 5 3 6 5 5 5 5 5 5 5 5 5 5 5 5 5 5 5 5 5 5 c #.8.c.8.c.c.8.c.8.8.1.",
"v.1.c.8.c.8.v.J 5 5 6 5 5 5 5 3 5 5 5 5 5 5 5 5 5 5 3 5 5 , # 3 5 5 5 5 5 5 5 5 5 5 5 5 5 5 5 5 5 5 5 3 v ] v.2.c.8.g.8.g.g.8.c.",
"1.c.1.c.2.c.y.T : ; : : : : : : 9 0 ; : : ; 9 0 9 : : : 0 9 o ; ; : : 0 : : : : : ; : : : : : : : : : ; g ,.8.c.8.g.8.c.g.8.c.8.",
"v.1.c.8.c.2.v./ s s s s s s s s y s * a y y s y s y y s y s s i y a k s y a k s y - d s y a y y s s s s C ;.c.8.c.8.y.8.8.g.8.c.",
"1.c.1.c.8.c.y.P 8 8 8 8 8 8 8 8 x x p c x x x x x x x x x x x 8 x x 6 x x x 8 8 x a j 8 x x 8 A 8 8 8 8 A =.8.c.8.g.8.c.g.8.c.2.",
"m.1.c.1.c.8.c.I 6 x 6 x 8 8 8 8 x 6 w i 8 x 6 6 x 6 6 x 6 8 x 6 6 A 6 6 x 6 8 x 6 u i x 6 6 x 6 8 8 8 6 A  .c.8.c.8.g.8.8.g.8.c.",
"1.c.8.c.1.c.f.L 6 6 6 6 6 6 6 6 6 6 q i 6 6 6 x 6 6 6 6 6 6 6 6 6 6 6 6 6 6 6 6 6 u y 6 x 6 6 6 6 6 6 6 b +.8.a.8.c.8.c.c.8.g.8.",
"c.8.c.1.c.8.c.L 6 6 6 6 6 6 6 6 6 5 $ 4 6 6 6 6 6 6 5 x 6 6 6 6 6 6 6 6 6 5 6 6 6 0 < 6 6 6 6 6 6 6 6 5 v | g.a.c.8.g.8.8.c.8.c.",
"8.c.8.c.8.c.8.J 3 3 5 5 5 5 5 6 5 4 $ , 6 6 5 5 5 5 5 5 6 5 5 5 3 6 3 6 5 5 5 5 5 ; > 5 5 5 5 6 6 5 5 5 z ..a.a.8.g.8.g.g.8.g.8.",
"c.2.g.2.g.2.l.J 3 5 4 5 4 4 5 4 3 4 e t 4 5 4 5 4 4 4 3 4 4 4 3 3 5 4 4 5 4 4 5 4 w t 5 4 4 4 4 4 4 4 3 l | v.8.g.8.c.8.8.c.8.c.",
"2.g.a.g.g.y.i.o.! / ^ ^ / / / / / ^ ' / / ^ / Q _ ^ _ ^ _ ^ / ^ / ! / ^ / / ^ / ^ ' ` _ ^ _ ^ / ^ _ ^ _ / 5.8.g.8.c.8.g.c.8.g.8.",
"g.g.g.y.g.2.g.i.g.g.l.c.l.v.g.g.c.c.g.c.g.v.g.v.g.b.y.c.c.v.g.c.g.l.l.l.g.v.c.g.c.y.c.c.c.g.v.g.v.g.v.f.v.y.g.8.g.8.g.8.8.c.8.c.",
"a.g.2.g.g.g.g.g.y.g.y.y.g.2.g.y.g.8.y.g.y.y.g.y.g.g.g.g.g.8.g.a.i.2.g.y.y.g.8.g.y.g.8.8.a.g.2.g.8.g.8.c.y.y.g.8.8.c.8.c.g.8.g.8.",
"2.g.2.g.g.g.2.g.2.g.2.g.g.y.g.2.g.g.g.8.g.2.g.2.y.g.g.2.g.8.g.8.g.8.g.a.y.g.8.g.8.g.8.g.8.g.8.g.y.g.g.g.8.c.8.c.8.c.8.c.g.8.c.8.",
"g.g.g.g.g.2.g.2.g.g.g.2.2.g.g.g.2.g.2.g.8.g.g.g.8.g.8.g.8.g.a.g.a.g.8.g.g.8.g.y.g.8.g.g.g.8.g.g.g.8.g.8.g.8.g.8.g.8.g.8.8.g.8.g.",
"a.g.2.g.g.g.g.g.g.g.g.g.g.2.g.2.g.g.g.2.g.8.g.g.g.2.g.8.g.g.g.g.g.8.g.8.8.g.8.g.g.g.g.g.8.c.2.g.8.c.2.g.8.g.8.g.8.c.8.g.g.8.c.8.",
"b.2.g.2.g.2.g.2.g.2.g.2.g.g.g.g.2.b.2.c.2.b.2.b.2.c.2.b.2.g.2.g.2.g.8.g.g.a.g.8.g.2.g.2.c.2.c.2.b.2.c.2.c.8.c.8.c.8.g.g.8.g.8.c."
};
